SourceCode_ExtraLight.ufo
<glyph name="F" format="1">
	<unicode hex="0046"/>
	<advance width="600"/>
	<outline>
		<contour>
			<point x="156" y="0" type="line"/>
			<point x="188" y="0" type="line"/>
			<point x="188" y="326" type="line"/>
			<point x="479" y="326" type="line"/>
			<point x="479" y="354" type="line"/>
			<point x="188" y="354" type="line"/>
			<point x="188" y="632" type="line"/>
			<point x="534" y="632" type="line"/>
			<point x="534" y="660" type="line"/>
			<point x="156" y="660" type="line"/>
		</contour>
		<contour>
			<point name="aboveUC" x="349" y="680" type="move"/>
		</contour>
		<contour>
			<point name="baseLC" x="164" y="0" type="move"/>
		</contour>
		<contour>
			<point name="belowLC" x="181" y="-20" type="move"/>
		</contour>
	</outline>
</glyph>
<glyph name="I" format="2">
	<unicode hex="0049"/>
	<advance width="600"/>
	<outline>
		<contour>
			<point x="112" y="0" type="line"/>
			<point x="488" y="0" type="line"/>
			<point x="488" y="28" type="line"/>
			<point x="316" y="28" type="line"/>
			<point x="316" y="632" type="line"/>
			<point x="488" y="632" type="line"/>
			<point x="488" y="660" type="line"/>
			<point x="112" y="660" type="line"/>
			<point x="112" y="632" type="line"/>
			<point x="284" y="632" type="line"/>
			<point x="284" y="28" type="line"/>
			<point x="112" y="28" type="line"/>
		</contour>
	</outline>
	<anchor name="aboveUC" x="300" y="680"/>
	<anchor name="baseLC" x="300" y="0"/>
	<anchor name="belowLC" x="300" y="-20"/>
	<anchor name="ogonekUC" x="300" y="0"/>
</glyph>
<glyph name="n" format="2">
	<unicode hex="006E"/>
	<advance width="600"/>
	<outline>
		<contour>
			<point x="110" y="0" type="line"/>
			<point x="140" y="0" type="line"/>
			<point x="140" y="346" type="line"/>
			<point x="214" y="424"/>
			<point x="264" y="462"/>
			<point x="336" y="462" type="curve" smooth="yes"/>
			<point x="437" y="462"/>
			<point x="480" y="407"/>
			<point x="480" y="294" type="curve" smooth="yes"/>
			<point x="480" y="0" type="line"/>
			<point x="510" y="0" type="line"/>
			<point x="510" y="298" type="line" smooth="yes"/>
			<point x="510" y="429"/>
			<point x="453" y="490"/>
			<point x="336" y="490" type="curve" smooth="yes"/>
			<point x="258" y="490"/>
			<point x="201" y="444"/>
			<point x="144" y="382" type="curve"/>
			<point x="140" y="382" type="line"/>
			<point x="136" y="478" type="line"/>
			<point x="110" y="478" type="line"/>
		</contour>
	</outline>
	<anchor name="aboveLC" x="320" y="500"/>
	<anchor name="baseLC" x="488" y="0"/>
	<anchor name="belowLC" x="318" y="-20"/>
</glyph>
<glyph name="o" format="1">
	<unicode hex="006F"/>
	<advance width="600"/>
	<outline>
		<contour>
			<point x="300" y="-12" type="curve" smooth="yes"/>
			<point x="425" y="-12"/>
			<point x="530" y="80"/>
			<point x="530" y="238" type="curve" smooth="yes"/>
			<point x="530" y="398"/>
			<point x="425" y="490"/>
			<point x="300" y="490" type="curve" smooth="yes"/>
			<point x="175" y="490"/>
			<point x="70" y="398"/>
			<point x="70" y="238" type="curve" smooth="yes"/>
			<point x="70" y="80"/>
			<point x="175" y="-12"/>
		</contour>
		<contour>
			<point x="300" y="16" type="curve" smooth="yes"/>
			<point x="186" y="16"/>
			<point x="102" y="106"/>
			<point x="102" y="238" type="curve" smooth="yes"/>
			<point x="102" y="370"/>
			<point x="186" y="462"/>
			<point x="300" y="462" type="curve" smooth="yes"/>
			<point x="414" y="462"/>
			<point x="498" y="370"/>
			<point x="498" y="238" type="curve" smooth="yes"/>
			<point x="498" y="106"/>
			<point x="414" y="16"/>
		</contour>
		<contour>
			<point name="aboveLC" x="300" y="500" type="move"/>
		</contour>
		<contour>
			<point name="baseLC" x="300" y="0" type="move"/>
		</contour>
		<contour>
			<point name="belowLC" x="300" y="-20" type="move"/>
		</contour>
		<contour>
			<point name="hornLC" x="410" y="478" type="move"/>
		</contour>
		<contour>
			<point name="ogonekLC" x="300" y="0" type="move"/>
		</contour>
	</outline>
</glyph>
<glyph name="v" format="1">
	<unicode hex="0076"/>
	<advance width="600"/>
	<outline>
		<contour>
			<point x="286" y="0" type="line"/>
			<point x="316" y="0" type="line"/>
			<point x="534" y="478" type="line"/>
			<point x="504" y="478" type="line"/>
			<point x="364" y="168" type="line" smooth="yes"/>
			<point x="342" y="120"/>
			<point x="323" y="74"/>
			<point x="304" y="32" type="curve"/>
			<point x="300" y="32" type="line"/>
			<point x="281" y="74"/>
			<point x="260" y="120"/>
			<point x="238" y="168" type="curve" smooth="yes"/>
			<point x="98" y="478" type="line"/>
			<point x="66" y="478" type="line"/>
		</contour>
		<contour>
			<point name="aboveLC" x="300" y="500" type="move"/>
		</contour>
		<contour>
			<point name="belowLC" x="300" y="-20" type="move"/>
		</contour>
	</outline>
</glyph>
<glyph name="Eth" format="1">
	<unicode hex="00D0"/>
	<advance width="600"/>
	<outline>
		<contour>
			<point x="100" y="0" type="line"/>
			<point x="248" y="0" type="line" smooth="yes"/>
			<point x="452" y="0"/>
			<point x="544" y="136"/>
			<point x="544" y="332" type="curve" smooth="yes"/>
			<point x="544" y="528"/>
			<point x="452" y="660"/>
			<point x="248" y="660" type="curve" smooth="yes"/>
			<point x="100" y="660" type="line"/>
			<point x="100" y="366" type="line"/>
			<point x="22" y="362" type="line"/>
			<point x="22" y="338" type="line"/>
			<point x="100" y="338" type="line"/>
		</contour>
		<contour>
			<point x="132" y="28" type="line"/>
			<point x="132" y="338" type="line"/>
			<point x="304" y="338" type="line"/>
			<point x="304" y="366" type="line"/>
			<point x="132" y="366" type="line"/>
			<point x="132" y="632" type="line"/>
			<point x="244" y="632" type="line" smooth="yes"/>
			<point x="432" y="632"/>
			<point x="510" y="506"/>
			<point x="510" y="332" type="curve" smooth="yes"/>
			<point x="510" y="158"/>
			<point x="432" y="28"/>
			<point x="244" y="28" type="curve" smooth="yes"/>
		</contour>
		<contour>
			<point name="aboveUC" x="300" y="680" type="move"/>
		</contour>
		<contour>
			<point name="belowLC" x="290" y="-20" type="move"/>
		</contour>
	</outline>
</glyph>
<glyph name="Oslash" format="1">
	<unicode hex="00D8"/>
	<advance width="600"/>
	<outline>
		<contour>
			<point x="58" y="-4" type="line"/>
			<point x="80" y="-20" type="line"/>
			<point x="538" y="664" type="line"/>
			<point x="516" y="680" type="line"/>
		</contour>
		<component base="O"/>
		<contour>
			<point name="aboveUC" x="300" y="680" type="move"/>
		</contour>
		<contour>
			<point name="baseLC" x="300" y="0" type="move"/>
		</contour>
	</outline>
</glyph>
<glyph name="eogonek" format="1">
	<unicode hex="0119"/>
	<advance width="600"/>
	<outline>
		<contour>
			<point x="428" y="-224" type="curve" smooth="yes"/>
			<point x="468" y="-224"/>
			<point x="488" y="-208"/>
			<point x="506" y="-188" type="curve"/>
			<point x="488" y="-170" type="line"/>
			<point x="476" y="-184"/>
			<point x="458" y="-196"/>
			<point x="430" y="-196" type="curve" smooth="yes"/>
			<point x="399" y="-196"/>
			<point x="366" y="-176"/>
			<point x="366" y="-134" type="curve" smooth="yes"/>
			<point x="366" y="-74"/>
			<point x="408" y="-30"/>
			<point x="510" y="44" type="curve"/>
			<point x="496" y="70" type="line"/>
			<point x="453" y="38"/>
			<point x="400" y="16"/>
			<point x="330" y="16" type="curve" smooth="yes"/>
			<point x="214" y="16"/>
			<point x="112" y="96"/>
			<point x="112" y="240" type="curve" smooth="yes"/>
			<point x="112" y="380"/>
			<point x="214" y="462"/>
			<point x="318" y="462" type="curve" smooth="yes"/>
			<point x="426" y="462"/>
			<point x="502" y="394"/>
			<point x="502" y="250" type="curve"/>
			<point x="520" y="266" type="line"/>
			<point x="90" y="266" type="line"/>
			<point x="90" y="238" type="line"/>
			<point x="528" y="238" type="line"/>
			<point x="530" y="250"/>
			<point x="530" y="260"/>
			<point x="530" y="270" type="curve" smooth="yes"/>
			<point x="530" y="408"/>
			<point x="446" y="490"/>
			<point x="318" y="490" type="curve" smooth="yes"/>
			<point x="194" y="490"/>
			<point x="80" y="394"/>
			<point x="80" y="238" type="curve" smooth="yes"/>
			<point x="80" y="82"/>
			<point x="194" y="-12"/>
			<point x="330" y="-12" type="curve" smooth="yes"/>
			<point x="364" y="-12"/>
			<point x="394" y="-14"/>
			<point x="449" y="15" type="curve"/>
			<point x="446" y="20" type="line"/>
			<point x="384" y="-20"/>
			<point x="336" y="-70"/>
			<point x="336" y="-136" type="curve" smooth="yes"/>
			<point x="336" y="-196"/>
			<point x="377" y="-224"/>
		</contour>
		<contour>
			<point name="aboveLC" x="317" y="500" type="move"/>
		</contour>
	</outline>
</glyph>
<glyph name="Iogonek" format="1">
	<unicode hex="012E"/>
	<advance width="600"/>
	<outline>
		<contour>
			<point x="314" y="-224" type="curve" smooth="yes"/>
			<point x="352" y="-224"/>
			<point x="372" y="-208"/>
			<point x="392" y="-188" type="curve"/>
			<point x="374" y="-170" type="line"/>
			<point x="360" y="-184"/>
			<point x="342" y="-196"/>
			<point x="316" y="-196" type="curve" smooth="yes"/>
			<point x="283" y="-196"/>
			<point x="252" y="-176"/>
			<point x="252" y="-134" type="curve" smooth="yes"/>
			<point x="252" y="-94"/>
			<point x="278" y="-50"/>
			<point x="324" y="0" type="curve"/>
			<point x="488" y="0" type="line"/>
			<point x="488" y="28" type="line"/>
			<point x="316" y="28" type="line"/>
			<point x="316" y="632" type="line"/>
			<point x="488" y="632" type="line"/>
			<point x="488" y="660" type="line"/>
			<point x="112" y="660" type="line"/>
			<point x="112" y="632" type="line"/>
			<point x="284" y="632" type="line"/>
			<point x="284" y="28" type="line"/>
			<point x="112" y="28" type="line"/>
			<point x="112" y="0" type="line"/>
			<point x="290" y="0" type="line"/>
			<point x="254" y="-40"/>
			<point x="222" y="-86"/>
			<point x="222" y="-136" type="curve" smooth="yes"/>
			<point x="222" y="-196"/>
			<point x="261" y="-224"/>
		</contour>
		<contour>
			<point name="aboveUC" x="300" y="680" type="move"/>
		</contour>
	</outline>
</glyph>
<glyph name="iogonek" format="1">
	<unicode hex="012F"/>
	<advance width="600"/>
	<outline>
		<component base="iogonek.d"/>
		<component base="dotaccentcmb" xOffset="50"/>
		<contour>
			<point name="aboveUC" x="350" y="720" type="move"/>
		</contour>
	</outline>
</glyph>
<glyph name="dotlessi" format="1">
	<unicode hex="0131"/>
	<advance width="600"/>
	<outline>
		<contour>
			<point x="346" y="0" type="line"/>
			<point x="376" y="0" type="line"/>
			<point x="376" y="478" type="line"/>
			<point x="100" y="478" type="line"/>
			<point x="100" y="450" type="line"/>
			<point x="346" y="450" type="line"/>
		</contour>
		<contour>
			<point name="aboveLC" x="350" y="500" type="move"/>
		</contour>
		<contour>
			<point name="baseLC" x="354" y="0" type="move"/>
		</contour>
		<contour>
			<point name="belowLC" x="350" y="-20" type="move"/>
		</contour>
		<contour>
			<point name="ogonekLC" x="360" y="0" type="move"/>
		</contour>
	</outline>
</glyph>
<glyph name="Tbar" format="1">
	<unicode hex="0166"/>
	<advance width="600"/>
	<outline>
		<contour>
			<point x="136" y="336" type="line"/>
			<point x="464" y="336" type="line"/>
			<point x="464" y="364" type="line"/>
			<point x="220" y="364" type="line"/>
			<point x="136" y="362" type="line"/>
		</contour>
		<component base="T"/>
		<contour>
			<point name="aboveUC" x="300" y="680" type="move"/>
		</contour>
		<contour>
			<point name="belowLC" x="300" y="-20" type="move"/>
		</contour>
	</outline>
</glyph>
<glyph name="Uogonek" format="1">
	<unicode hex="0172"/>
	<advance width="600"/>
	<outline>
		<contour>
			<point x="314" y="-224" type="curve" smooth="yes"/>
			<point x="352" y="-224"/>
			<point x="372" y="-208"/>
			<point x="392" y="-188" type="curve"/>
			<point x="374" y="-170" type="line"/>
			<point x="360" y="-184"/>
			<point x="342" y="-196"/>
			<point x="316" y="-196" type="curve" smooth="yes"/>
			<point x="283" y="-196"/>
			<point x="252" y="-176"/>
			<point x="252" y="-134" type="curve" smooth="yes"/>
			<point x="252" y="-86"/>
			<point x="284" y="-34"/>
			<point x="362" y="-6" type="curve" smooth="yes"/>
			<point x="456" y="28"/>
			<point x="508" y="92"/>
			<point x="508" y="246" type="curve" smooth="yes"/>
			<point x="508" y="660" type="line"/>
			<point x="478" y="660" type="line"/>
			<point x="478" y="254" type="line" smooth="yes"/>
			<point x="478" y="72"/>
			<point x="392" y="18"/>
			<point x="299" y="18" type="curve" smooth="yes"/>
			<point x="206" y="18"/>
			<point x="124" y="72"/>
			<point x="124" y="254" type="curve" smooth="yes"/>
			<point x="124" y="660" type="line"/>
			<point x="92" y="660" type="line"/>
			<point x="92" y="246" type="line" smooth="yes"/>
			<point x="92" y="64"/>
			<point x="176" y="-8"/>
			<point x="292" y="-12" type="curve"/>
			<point x="256" y="-42"/>
			<point x="222" y="-83"/>
			<point x="222" y="-136" type="curve" smooth="yes"/>
			<point x="222" y="-196"/>
			<point x="261" y="-224"/>
		</contour>
		<contour>
			<point name="aboveUC" x="300" y="680" type="move"/>
		</contour>
	</outline>
</glyph>
<glyph name="uogonek" format="1">
	<unicode hex="0173"/>
	<advance width="600"/>
	<outline>
		<contour>
			<point x="454" y="-224" type="curve" smooth="yes"/>
			<point x="492" y="-224"/>
			<point x="512" y="-208"/>
			<point x="532" y="-188" type="curve"/>
			<point x="514" y="-170" type="line"/>
			<point x="500" y="-184"/>
			<point x="482" y="-196"/>
			<point x="456" y="-196" type="curve" smooth="yes"/>
			<point x="423" y="-196"/>
			<point x="392" y="-176"/>
			<point x="392" y="-134" type="curve" smooth="yes"/>
			<point x="392" y="-90"/>
			<point x="420" y="-48"/>
			<point x="490" y="-8" type="curve"/>
			<point x="490" y="478" type="line"/>
			<point x="460" y="478" type="line"/>
			<point x="460" y="132" type="line"/>
			<point x="390" y="53"/>
			<point x="336" y="16"/>
			<point x="264" y="16" type="curve" smooth="yes"/>
			<point x="163" y="16"/>
			<point x="120" y="71"/>
			<point x="120" y="184" type="curve" smooth="yes"/>
			<point x="120" y="478" type="line"/>
			<point x="90" y="478" type="line"/>
			<point x="90" y="180" type="line" smooth="yes"/>
			<point x="90" y="49"/>
			<point x="147" y="-12"/>
			<point x="264" y="-12" type="curve" smooth="yes"/>
			<point x="342" y="-12"/>
			<point x="403" y="34"/>
			<point x="456" y="96" type="curve"/>
			<point x="460" y="96" type="line"/>
			<point x="464" y="2" type="line"/>
			<point x="400" y="-38"/>
			<point x="362" y="-82"/>
			<point x="362" y="-136" type="curve" smooth="yes"/>
			<point x="362" y="-196"/>
			<point x="401" y="-224"/>
		</contour>
		<contour>
			<point name="aboveLC" x="294" y="500" type="move"/>
		</contour>
	</outline>
</glyph>
<glyph name="Ohorn" format="2">
	<unicode hex="01A0"/>
	<advance width="600"/>
	<outline>
		<contour>
			<point x="431" y="617" type="line"/>
			<point x="493" y="633"/>
			<point x="536" y="670"/>
			<point x="536" y="732" type="curve" smooth="yes"/>
			<point x="536" y="754"/>
			<point x="530" y="776"/>
			<point x="518" y="798" type="curve"/>
			<point x="488" y="782" type="line"/>
			<point x="498" y="765"/>
			<point x="502" y="745"/>
			<point x="502" y="730" type="curve" smooth="yes"/>
			<point x="502" y="682"/>
			<point x="470" y="650"/>
			<point x="400" y="640" type="curve"/>
		</contour>
		<component base="O"/>
	</outline>
	<anchor name="aboveUC" x="300" y="680"/>
	<anchor name="belowLC" x="300" y="-20"/>
</glyph>
<glyph name="Uhorn" format="1">
	<unicode hex="01AF"/>
	<advance width="600"/>
	<outline>
		<contour>
			<point x="506" y="638" type="line"/>
			<point x="556" y="652"/>
			<point x="606" y="680"/>
			<point x="606" y="752" type="curve" smooth="yes"/>
			<point x="606" y="774"/>
			<point x="600" y="796"/>
			<point x="588" y="818" type="curve"/>
			<point x="558" y="802" type="line"/>
			<point x="568" y="785"/>
			<point x="572" y="765"/>
			<point x="572" y="750" type="curve" smooth="yes"/>
			<point x="572" y="698"/>
			<point x="548" y="670"/>
			<point x="480" y="660" type="curve"/>
		</contour>
		<component base="U"/>
		<contour>
			<point name="aboveUC" x="300" y="680" type="move"/>
		</contour>
		<contour>
			<point name="belowLC" x="300" y="-20" type="move"/>
		</contour>
	</outline>
</glyph>
<glyph name="Oogonek" format="1">
	<unicode hex="01EA"/>
	<advance width="600"/>
	<outline>
		<contour>
			<point x="314" y="-224" type="curve" smooth="yes"/>
			<point x="352" y="-224"/>
			<point x="372" y="-208"/>
			<point x="392" y="-188" type="curve"/>
			<point x="374" y="-170" type="line"/>
			<point x="360" y="-184"/>
			<point x="342" y="-196"/>
			<point x="316" y="-196" type="curve" smooth="yes"/>
			<point x="283" y="-196"/>
			<point x="252" y="-176"/>
			<point x="252" y="-134" type="curve" smooth="yes"/>
			<point x="252" y="-86"/>
			<point x="292" y="-34"/>
			<point x="358" y="-6" type="curve" smooth="yes"/>
			<point x="481" y="46"/>
			<point x="544" y="160"/>
			<point x="544" y="332" type="curve" smooth="yes"/>
			<point x="544" y="540"/>
			<point x="442" y="672"/>
			<point x="300" y="672" type="curve" smooth="yes"/>
			<point x="158" y="672"/>
			<point x="56" y="540"/>
			<point x="56" y="332" type="curve" smooth="yes"/>
			<point x="56" y="136"/>
			<point x="144" y="-6"/>
			<point x="298" y="-12" type="curve"/>
			<point x="256" y="-46"/>
			<point x="222" y="-84"/>
			<point x="222" y="-136" type="curve" smooth="yes"/>
			<point x="222" y="-196"/>
			<point x="261" y="-224"/>
		</contour>
		<contour>
			<point x="300" y="18" type="curve" smooth="yes"/>
			<point x="175" y="18"/>
			<point x="90" y="142"/>
			<point x="90" y="332" type="curve" smooth="yes"/>
			<point x="90" y="522"/>
			<point x="175" y="642"/>
			<point x="300" y="642" type="curve" smooth="yes"/>
			<point x="425" y="642"/>
			<point x="510" y="522"/>
			<point x="510" y="332" type="curve" smooth="yes"/>
			<point x="510" y="142"/>
			<point x="425" y="18"/>
		</contour>
		<contour>
			<point name="aboveUC" x="300" y="680" type="move"/>
		</contour>
	</outline>
</glyph>
<glyph name="oogonek" format="1">
	<unicode hex="01EB"/>
	<advance width="600"/>
	<outline>
		<contour>
			<point x="328" y="-224" type="curve" smooth="yes"/>
			<point x="366" y="-224"/>
			<point x="386" y="-208"/>
			<point x="406" y="-188" type="curve"/>
			<point x="388" y="-170" type="line"/>
			<point x="374" y="-184"/>
			<point x="356" y="-196"/>
			<point x="330" y="-196" type="curve" smooth="yes"/>
			<point x="297" y="-196"/>
			<point x="266" y="-176"/>
			<point x="266" y="-134" type="curve" smooth="yes"/>
			<point x="266" y="-86"/>
			<point x="304" y="-30"/>
			<point x="360" y="-6" type="curve" smooth="yes"/>
			<point x="462" y="38"/>
			<point x="530" y="100"/>
			<point x="530" y="238" type="curve" smooth="yes"/>
			<point x="530" y="398"/>
			<point x="425" y="490"/>
			<point x="300" y="490" type="curve" smooth="yes"/>
			<point x="175" y="490"/>
			<point x="70" y="398"/>
			<point x="70" y="238" type="curve" smooth="yes"/>
			<point x="70" y="86"/>
			<point x="166" y="-12"/>
			<point x="308" y="-12" type="curve"/>
			<point x="268" y="-44"/>
			<point x="236" y="-84"/>
			<point x="236" y="-136" type="curve" smooth="yes"/>
			<point x="236" y="-196"/>
			<point x="275" y="-224"/>
		</contour>
		<contour>
			<point x="300" y="16" type="curve" smooth="yes"/>
			<point x="186" y="16"/>
			<point x="102" y="106"/>
			<point x="102" y="238" type="curve" smooth="yes"/>
			<point x="102" y="370"/>
			<point x="186" y="462"/>
			<point x="300" y="462" type="curve" smooth="yes"/>
			<point x="414" y="462"/>
			<point x="498" y="370"/>
			<point x="498" y="238" type="curve" smooth="yes"/>
			<point x="498" y="106"/>
			<point x="414" y="16"/>
		</contour>
		<contour>
			<point name="aboveLC" x="300" y="500" type="move"/>
		</contour>
	</outline>
</glyph>
<glyph name="dotlessj" format="1">
	<unicode hex="0237"/>
	<advance width="600"/>
	<outline>
		<contour>
			<point x="194" y="-234" type="curve" smooth="yes"/>
			<point x="332" y="-234"/>
			<point x="376" y="-164"/>
			<point x="376" y="-46" type="curve" smooth="yes"/>
			<point x="376" y="478" type="line"/>
			<point x="100" y="478" type="line"/>
			<point x="100" y="450" type="line"/>
			<point x="346" y="450" type="line"/>
			<point x="346" y="-52" type="line" smooth="yes"/>
			<point x="346" y="-143"/>
			<point x="316" y="-206"/>
			<point x="199" y="-206" type="curve" smooth="yes"/>
			<point x="156" y="-206"/>
			<point x="111" y="-192"/>
			<point x="80" y="-176" type="curve"/>
			<point x="66" y="-202" type="line"/>
			<point x="101" y="-220"/>
			<point x="151" y="-234"/>
		</contour>
		<contour>
			<point name="aboveLC" x="350" y="500" type="move"/>
		</contour>
		<contour>
			<point name="belowLC" x="230" y="-230" type="move"/>
		</contour>
	</outline>
</glyph>
<glyph name="ccurl" format="2">
	<unicode hex="0255"/>
	<advance width="600"/>
	<outline>
		<contour>
			<point x="178" y="-106" type="line"/>
			<point x="218" y="30"/>
			<point x="338" y="134"/>
			<point x="422" y="134" type="curve" smooth="yes"/>
			<point x="473" y="134"/>
			<point x="492" y="112"/>
			<point x="492" y="86" type="curve" smooth="yes"/>
			<point x="492" y="44"/>
			<point x="446" y="16"/>
			<point x="356" y="16" type="curve" smooth="yes"/>
			<point x="221" y="16"/>
			<point x="122" y="106"/>
			<point x="122" y="238" type="curve" smooth="yes"/>
			<point x="122" y="370"/>
			<point x="217" y="462"/>
			<point x="338" y="462" type="curve" smooth="yes"/>
			<point x="405" y="462"/>
			<point x="456" y="437"/>
			<point x="498" y="394" type="curve"/>
			<point x="518" y="416" type="line"/>
			<point x="478" y="458"/>
			<point x="423" y="490"/>
			<point x="338" y="490" type="curve" smooth="yes"/>
			<point x="206" y="490"/>
			<point x="90" y="398"/>
			<point x="90" y="238" type="curve" smooth="yes"/>
			<point x="90" y="80"/>
			<point x="210" y="-12"/>
			<point x="356" y="-12" type="curve" smooth="yes"/>
			<point x="470" y="-12"/>
			<point x="522" y="32"/>
			<point x="522" y="88" type="curve" smooth="yes"/>
			<point x="522" y="132"/>
			<point x="488" y="162"/>
			<point x="422" y="162" type="curve" smooth="yes"/>
			<point x="320" y="162"/>
			<point x="204" y="58"/>
			<point x="150" y="-96" type="curve"/>
		</contour>
	</outline>
	<anchor name="aboveLC" x="340" y="500"/>
	<anchor name="belowLC" x="360" y="-20"/>
</glyph>
<glyph name="eopenreversedclosed" format="1">
	<unicode hex="025E"/>
	<advance width="600"/>
	<outline>
		<contour>
			<point x="332" y="-12" type="curve" smooth="yes"/>
			<point x="461" y="-12"/>
			<point x="530" y="42"/>
			<point x="530" y="128" type="curve" smooth="yes"/>
			<point x="530" y="200"/>
			<point x="472" y="238"/>
			<point x="420" y="252" type="curve"/>
			<point x="420" y="256" type="line"/>
			<point x="470" y="276"/>
			<point x="502" y="318"/>
			<point x="502" y="368" type="curve" smooth="yes"/>
			<point x="502" y="448"/>
			<point x="430" y="490"/>
			<point x="328" y="490" type="curve" smooth="yes"/>
			<point x="188" y="490"/>
			<point x="70" y="398"/>
			<point x="70" y="232" type="curve" smooth="yes"/>
			<point x="70" y="72"/>
			<point x="178" y="-12"/>
		</contour>
		<contour>
			<point x="330" y="16" type="curve" smooth="yes"/>
			<point x="188" y="16"/>
			<point x="102" y="98"/>
			<point x="102" y="232" type="curve" smooth="yes"/>
			<point x="102" y="368"/>
			<point x="200" y="462"/>
			<point x="328" y="462" type="curve" smooth="yes"/>
			<point x="412" y="462"/>
			<point x="470" y="432"/>
			<point x="470" y="366" type="curve" smooth="yes"/>
			<point x="470" y="310"/>
			<point x="416" y="266"/>
			<point x="322" y="266" type="curve" smooth="yes"/>
			<point x="298" y="266" type="line"/>
			<point x="298" y="238" type="line"/>
			<point x="336" y="238" type="line" smooth="yes"/>
			<point x="428" y="238"/>
			<point x="498" y="197"/>
			<point x="498" y="129" type="curve" smooth="yes"/>
			<point x="498" y="56"/>
			<point x="441" y="16"/>
		</contour>
		<contour>
			<point name="aboveLC" x="320" y="500" type="move"/>
		</contour>
		<contour>
			<point name="belowLC" x="300" y="-20" type="move"/>
		</contour>
	</outline>
</glyph>
<glyph name="gsmall" format="1">
	<unicode hex="0262"/>
	<advance width="600"/>
	<outline>
		<contour>
			<point x="340" y="-12" type="curve" smooth="yes"/>
			<point x="422" y="-12"/>
			<point x="482" y="19"/>
			<point x="522" y="58" type="curve"/>
			<point x="522" y="234" type="line"/>
			<point x="324" y="234" type="line"/>
			<point x="324" y="206" type="line"/>
			<point x="492" y="206" type="line"/>
			<point x="492" y="71" type="line"/>
			<point x="458" y="39"/>
			<point x="404" y="16"/>
			<point x="343" y="16" type="curve" smooth="yes"/>
			<point x="218" y="16"/>
			<point x="122" y="102"/>
			<point x="122" y="242" type="curve" smooth="yes"/>
			<point x="122" y="376"/>
			<point x="222" y="462"/>
			<point x="346" y="462" type="curve" smooth="yes"/>
			<point x="416" y="462"/>
			<point x="465" y="428"/>
			<point x="498" y="394" type="curve"/>
			<point x="518" y="416" type="line"/>
			<point x="483" y="452"/>
			<point x="428" y="490"/>
			<point x="346" y="490" type="curve" smooth="yes"/>
			<point x="202" y="490"/>
			<point x="90" y="393"/>
			<point x="90" y="242" type="curve" smooth="yes"/>
			<point x="90" y="84"/>
			<point x="198" y="-12"/>
		</contour>
		<contour>
			<point name="aboveLC" x="330" y="500" type="move"/>
		</contour>
		<contour>
			<point name="belowLC" x="330" y="-20" type="move"/>
		</contour>
	</outline>
</glyph>
<glyph name="ramshorn" format="1">
	<unicode hex="0264"/>
	<advance width="600"/>
	<outline>
		<contour>
			<point x="300" y="-12" type="curve" smooth="yes"/>
			<point x="410" y="-12"/>
			<point x="474" y="52"/>
			<point x="474" y="146" type="curve" smooth="yes"/>
			<point x="474" y="232"/>
			<point x="408" y="304"/>
			<point x="322" y="376" type="curve"/>
			<point x="376" y="432"/>
			<point x="409" y="462"/>
			<point x="455" y="462" type="curve" smooth="yes"/>
			<point x="473" y="462"/>
			<point x="489" y="458"/>
			<point x="503" y="448" type="curve"/>
			<point x="516" y="471" type="line"/>
			<point x="498" y="483"/>
			<point x="476" y="490"/>
			<point x="452" y="490" type="curve" smooth="yes"/>
			<point x="398" y="490"/>
			<point x="355" y="452"/>
			<point x="300" y="396" type="curve"/>
			<point x="244" y="452"/>
			<point x="202" y="490"/>
			<point x="148" y="490" type="curve" smooth="yes"/>
			<point x="124" y="490"/>
			<point x="102" y="483"/>
			<point x="84" y="471" type="curve"/>
			<point x="97" y="448" type="line"/>
			<point x="111" y="458"/>
			<point x="127" y="462"/>
			<point x="145" y="462" type="curve" smooth="yes"/>
			<point x="190" y="462"/>
			<point x="224" y="432"/>
			<point x="278" y="376" type="curve"/>
			<point x="190" y="304"/>
			<point x="126" y="232"/>
			<point x="126" y="146" type="curve" smooth="yes"/>
			<point x="126" y="52"/>
			<point x="190" y="-12"/>
		</contour>
		<contour>
			<point x="300" y="16" type="curve" smooth="yes"/>
			<point x="212" y="16"/>
			<point x="158" y="72"/>
			<point x="158" y="146" type="curve" smooth="yes"/>
			<point x="158" y="224"/>
			<point x="218" y="290"/>
			<point x="300" y="358" type="curve"/>
			<point x="382" y="290"/>
			<point x="442" y="224"/>
			<point x="442" y="146" type="curve" smooth="yes"/>
			<point x="442" y="72"/>
			<point x="388" y="16"/>
		</contour>
		<contour>
			<point name="aboveLC" x="300" y="500" type="move"/>
		</contour>
		<contour>
			<point name="belowLC" x="300" y="-20" type="move"/>
		</contour>
	</outline>
</glyph>
<glyph name="mlonglegturned" format="1">
	<unicode hex="0270"/>
	<advance width="600"/>
	<outline>
		<contour>
			<point x="490" y="-222" type="line"/>
			<point x="520" y="-222" type="line"/>
			<point x="520" y="478" type="line"/>
			<point x="490" y="478" type="line"/>
			<point x="490" y="112" type="line"/>
			<point x="456" y="48"/>
			<point x="426" y="16"/>
			<point x="379" y="16" type="curve" smooth="yes"/>
			<point x="329" y="16"/>
			<point x="304" y="56"/>
			<point x="304" y="134" type="curve" smooth="yes"/>
			<point x="304" y="478" type="line"/>
			<point x="274" y="478" type="line"/>
			<point x="274" y="112" type="line"/>
			<point x="240" y="48"/>
			<point x="210" y="16"/>
			<point x="163" y="16" type="curve" smooth="yes"/>
			<point x="113" y="16"/>
			<point x="88" y="56"/>
			<point x="88" y="134" type="curve" smooth="yes"/>
			<point x="88" y="478" type="line"/>
			<point x="58" y="478" type="line"/>
			<point x="58" y="130" type="line" smooth="yes"/>
			<point x="58" y="34"/>
			<point x="95" y="-12"/>
			<point x="161" y="-12" type="curve" smooth="yes"/>
			<point x="214" y="-12"/>
			<point x="243" y="18"/>
			<point x="280" y="74" type="curve"/>
			<point x="293" y="16"/>
			<point x="323" y="-12"/>
			<point x="377" y="-12" type="curve" smooth="yes"/>
			<point x="428" y="-12"/>
			<point x="459" y="16"/>
			<point x="490" y="70" type="curve"/>
			<point x="494" y="70" type="line"/>
			<point x="490" y="-32" type="line"/>
		</contour>
		<contour>
			<point name="aboveLC" x="300" y="500" type="move"/>
		</contour>
		<contour>
			<point name="belowLC" x="500" y="-230" type="move"/>
		</contour>
	</outline>
</glyph>
<glyph name="nsmall" format="2">
	<unicode hex="0274"/>
	<advance width="600"/>
	<outline>
		<contour>
			<point x="114" y="0" type="line"/>
			<point x="144" y="0" type="line"/>
			<point x="144" y="254" type="line" smooth="yes"/>
			<point x="144" y="307"/>
			<point x="142" y="368"/>
			<point x="140" y="432" type="curve"/>
			<point x="144" y="432" type="line"/>
			<point x="168" y="400"/>
			<point x="198" y="359"/>
			<point x="220" y="328" type="curve" smooth="yes"/>
			<point x="454" y="0" type="line"/>
			<point x="486" y="0" type="line"/>
			<point x="486" y="478" type="line"/>
			<point x="456" y="478" type="line"/>
			<point x="456" y="224" type="line" smooth="yes"/>
			<point x="456" y="171"/>
			<point x="458" y="110"/>
			<point x="460" y="46" type="curve"/>
			<point x="456" y="46" type="line"/>
			<point x="430" y="78"/>
			<point x="402" y="119"/>
			<point x="380" y="150" type="curve" smooth="yes"/>
			<point x="146" y="478" type="line"/>
			<point x="114" y="478" type="line"/>
		</contour>
	</outline>
	<anchor name="aboveLC" x="310" y="500"/>
	<anchor name="belowLC" x="300" y="-20"/>
</glyph>
<glyph name="obar" format="1">
	<unicode hex="0275"/>
	<advance width="600"/>
	<outline>
		<contour>
			<point x="300" y="-12" type="curve" smooth="yes"/>
			<point x="426" y="-12"/>
			<point x="530" y="74"/>
			<point x="530" y="238" type="curve" smooth="yes"/>
			<point x="530" y="404"/>
			<point x="426" y="490"/>
			<point x="300" y="490" type="curve" smooth="yes"/>
			<point x="174" y="490"/>
			<point x="70" y="404"/>
			<point x="70" y="238" type="curve" smooth="yes"/>
			<point x="70" y="74"/>
			<point x="174" y="-12"/>
		</contour>
		<contour>
			<point x="300" y="16" type="curve" smooth="yes"/>
			<point x="186" y="16"/>
			<point x="100" y="100"/>
			<point x="100" y="238" type="curve" smooth="yes"/>
			<point x="100" y="376"/>
			<point x="186" y="462"/>
			<point x="300" y="462" type="curve" smooth="yes"/>
			<point x="414" y="462"/>
			<point x="500" y="376"/>
			<point x="500" y="238" type="curve" smooth="yes"/>
			<point x="500" y="100"/>
			<point x="414" y="16"/>
		</contour>
		<contour>
			<point x="90" y="238" type="line"/>
			<point x="506" y="238" type="line"/>
			<point x="506" y="266" type="line"/>
			<point x="90" y="266" type="line"/>
		</contour>
		<contour>
			<point name="aboveLC" x="300" y="500" type="move"/>
		</contour>
		<contour>
			<point name="belowLC" x="300" y="-20" type="move"/>
		</contour>
	</outline>
</glyph>
<glyph name="rlonglegturned" format="1">
	<unicode hex="027A"/>
	<advance width="600"/>
	<outline>
		<contour>
			<point x="169" y="-12" type="curve" smooth="yes"/>
			<point x="267" y="-12"/>
			<point x="346" y="44"/>
			<point x="398" y="120" type="curve"/>
			<point x="400" y="120" type="line"/>
			<point x="404" y="0" type="line"/>
			<point x="430" y="0" type="line"/>
			<point x="430" y="722" type="line"/>
			<point x="400" y="722" type="line"/>
			<point x="400" y="172" type="line"/>
			<point x="330" y="60"/>
			<point x="256" y="18"/>
			<point x="173" y="18" type="curve" smooth="yes"/>
			<point x="135" y="18"/>
			<point x="118" y="23"/>
			<point x="82" y="36" type="curve"/>
			<point x="72" y="8" type="line"/>
			<point x="103" y="-8"/>
			<point x="138" y="-12"/>
		</contour>
		<contour>
			<point name="aboveUC" x="410" y="740" type="move"/>
		</contour>
		<contour>
			<point name="belowLC" x="260" y="-20" type="move"/>
		</contour>
	</outline>
</glyph>
<glyph name="dotlessjstrokehook" format="1">
	<unicode hex="0284"/>
	<advance width="600"/>
	<outline>
		<contour>
			<point x="88" y="238" type="line"/>
			<point x="508" y="238" type="line"/>
			<point x="508" y="266" type="line"/>
			<point x="286" y="266" type="line"/>
			<point x="88" y="262" type="line"/>
		</contour>
		<component base="esh"/>
		<contour>
			<point name="aboveUC" x="340" y="740" type="move"/>
		</contour>
		<contour>
			<point name="belowLC" x="280" y="-230" type="move"/>
		</contour>
	</outline>
</glyph>
<glyph name="tretroflex" format="1">
	<unicode hex="0288"/>
	<advance width="600"/>
	<outline>
		<contour>
			<point x="397" y="-180" type="curve" smooth="yes"/>
			<point x="441" y="-180"/>
			<point x="499" y="-168"/>
			<point x="542" y="-150" type="curve"/>
			<point x="532" y="-126" type="line"/>
			<point x="493" y="-142"/>
			<point x="452" y="-152"/>
			<point x="399" y="-152" type="curve" smooth="yes"/>
			<point x="288" y="-152"/>
			<point x="262" y="-92"/>
			<point x="262" y="4" type="curve" smooth="yes"/>
			<point x="262" y="450" type="line"/>
			<point x="524" y="450" type="line"/>
			<point x="524" y="478" type="line"/>
			<point x="262" y="478" type="line"/>
			<point x="262" y="638" type="line"/>
			<point x="236" y="638" type="line"/>
			<point x="232" y="478" type="line"/>
			<point x="84" y="474" type="line"/>
			<point x="84" y="450" type="line"/>
			<point x="232" y="450" type="line"/>
			<point x="232" y="8" type="line" smooth="yes"/>
			<point x="232" y="-104"/>
			<point x="270" y="-180"/>
		</contour>
		<contour>
			<point name="aboveLC" x="250" y="630" type="move"/>
		</contour>
		<contour>
			<point name="belowLC" x="390" y="-230" type="move"/>
		</contour>
	</outline>
</glyph>
<glyph name="kturned" format="1">
	<unicode hex="029E"/>
	<advance width="600"/>
	<outline>
		<contour>
			<point x="440" y="-222" type="line"/>
			<point x="470" y="-222" type="line"/>
			<point x="470" y="478" type="line"/>
			<point x="440" y="478" type="line"/>
			<point x="440" y="340" type="line"/>
			<point x="38" y="0" type="line"/>
			<point x="80" y="0" type="line"/>
			<point x="436" y="302" type="line"/>
			<point x="440" y="302" type="line"/>
		</contour>
		<contour>
			<point x="280" y="170" type="line"/>
			<point x="300" y="192" type="line"/>
			<point x="106" y="478" type="line"/>
			<point x="72" y="478" type="line"/>
		</contour>
		<contour>
			<point name="aboveLC" x="274" y="500" type="move"/>
		</contour>
		<contour>
			<point name="belowLC" x="450" y="-230" type="move"/>
		</contour>
	</outline>
</glyph>
<glyph name="dezh" format="1">
	<unicode hex="02A4"/>
	<advance width="600"/>
	<outline>
		<contour>
			<point x="162" y="-12" type="curve" smooth="yes"/>
			<point x="218" y="-12"/>
			<point x="260" y="34"/>
			<point x="278" y="74" type="curve"/>
			<point x="280" y="74" type="line"/>
			<point x="284" y="0" type="line"/>
			<point x="310" y="0" type="line"/>
			<point x="310" y="722" type="line"/>
			<point x="280" y="722" type="line" smooth="yes"/>
			<point x="280" y="520" type="line"/>
			<point x="282" y="420" type="line"/>
			<point x="280" y="420" type="line"/>
			<point x="260" y="456"/>
			<point x="226" y="490"/>
			<point x="178" y="490" type="curve" smooth="yes"/>
			<point x="90" y="490"/>
			<point x="10" y="392"/>
			<point x="10" y="238" type="curve" smooth="yes"/>
			<point x="10" y="76"/>
			<point x="72" y="-12"/>
		</contour>
		<contour>
			<point x="164" y="16" type="curve" smooth="yes"/>
			<point x="88" y="16"/>
			<point x="42" y="106"/>
			<point x="42" y="238" type="curve" smooth="yes"/>
			<point x="42" y="362"/>
			<point x="100" y="462"/>
			<point x="176" y="462" type="curve" smooth="yes"/>
			<point x="220" y="462"/>
			<point x="250" y="432"/>
			<point x="280" y="386" type="curve"/>
			<point x="280" y="110" type="line"/>
			<point x="250" y="58"/>
			<point x="212" y="16"/>
		</contour>
		<contour>
			<point x="468" y="-234" type="curve" smooth="yes"/>
			<point x="544" y="-234"/>
			<point x="618" y="-168"/>
			<point x="618" y="-22" type="curve" smooth="yes"/>
			<point x="618" y="96"/>
			<point x="558" y="168"/>
			<point x="464" y="168" type="curve" smooth="yes"/>
			<point x="446" y="168"/>
			<point x="420" y="164"/>
			<point x="392" y="152" type="curve"/>
			<point x="406" y="138" type="line"/>
			<point x="598" y="462" type="line"/>
			<point x="598" y="478" type="line"/>
			<point x="306" y="478" type="line"/>
			<point x="306" y="450" type="line"/>
			<point x="554" y="450" type="line"/>
			<point x="376" y="146" type="line"/>
			<point x="396" y="120" type="line"/>
			<point x="418" y="132"/>
			<point x="434" y="140"/>
			<point x="462" y="140" type="curve" smooth="yes"/>
			<point x="539" y="140"/>
			<point x="586" y="78"/>
			<point x="586" y="-24" type="curve" smooth="yes"/>
			<point x="586" y="-142"/>
			<point x="534" y="-206"/>
			<point x="470" y="-206" type="curve" smooth="yes"/>
			<point x="404" y="-206"/>
			<point x="372" y="-180"/>
			<point x="340" y="-147" type="curve"/>
			<point x="320" y="-169" type="line"/>
			<point x="354" y="-204"/>
			<point x="392" y="-234"/>
		</contour>
		<contour>
			<point name="aboveUC" x="280" y="730" type="move"/>
		</contour>
		<contour>
			<point name="belowLC" x="330" y="-230" type="move"/>
		</contour>
	</outline>
</glyph>
<glyph name="w.sups" format="1">
	<unicode hex="02B7"/>
	<advance width="600"/>
	<outline>
		<contour>
			<point x="158" y="410" type="line"/>
			<point x="196" y="410" type="line"/>
			<point x="252" y="604" type="line"/>
			<point x="276" y="695" type="line"/>
			<point x="278" y="695" type="line"/>
			<point x="304" y="604" type="line"/>
			<point x="358" y="410" type="line"/>
			<point x="396" y="410" type="line"/>
			<point x="490" y="725" type="line"/>
			<point x="460" y="725" type="line"/>
			<point x="406" y="522" type="line"/>
			<point x="380" y="436" type="line"/>
			<point x="376" y="436" type="line"/>
			<point x="352" y="522" type="line"/>
			<point x="294" y="725" type="line"/>
			<point x="260" y="725" type="line"/>
			<point x="204" y="522" type="line"/>
			<point x="180" y="436" type="line"/>
			<point x="176" y="436" type="line"/>
			<point x="152" y="522" type="line"/>
			<point x="96" y="725" type="line"/>
			<point x="64" y="725" type="line"/>
		</contour>
	</outline>
</glyph>
<glyph name="ringhalfrightmod" format="1">
	<unicode hex="02BE"/>
	<advance width="600"/>
	<outline>
		<contour>
			<point x="230" y="538" type="line"/>
			<point x="332" y="534"/>
			<point x="400" y="588"/>
			<point x="400" y="680" type="curve" smooth="yes"/>
			<point x="400" y="772"/>
			<point x="332" y="826"/>
			<point x="230" y="822" type="curve"/>
			<point x="230" y="796" type="line"/>
			<point x="316" y="796"/>
			<point x="368" y="752"/>
			<point x="368" y="680" type="curve" smooth="yes"/>
			<point x="368" y="608"/>
			<point x="316" y="564"/>
			<point x="230" y="564" type="curve"/>
		</contour>
	</outline>
</glyph>
<glyph name="ringhalfleftmod" format="1">
	<unicode hex="02BF"/>
	<advance width="600"/>
	<outline>
		<contour>
			<point x="370" y="538" type="curve"/>
			<point x="370" y="564" type="line"/>
			<point x="284" y="564"/>
			<point x="232" y="608"/>
			<point x="232" y="680" type="curve" smooth="yes"/>
			<point x="232" y="752"/>
			<point x="284" y="796"/>
			<point x="370" y="796" type="curve"/>
			<point x="370" y="822" type="line"/>
			<point x="268" y="826"/>
			<point x="200" y="772"/>
			<point x="200" y="680" type="curve" smooth="yes"/>
			<point x="200" y="588"/>
			<point x="268" y="534"/>
		</contour>
	</outline>
</glyph>
<glyph name="colontriangularmod" format="1">
	<unicode hex="02D0"/>
	<advance width="600"/>
	<outline>
		<contour>
			<point x="232" y="0" type="line"/>
			<point x="368" y="0" type="line"/>
			<point x="304" y="116" type="line"/>
			<point x="296" y="116" type="line"/>
		</contour>
		<contour>
			<point x="296" y="364" type="line"/>
			<point x="304" y="364" type="line"/>
			<point x="368" y="478" type="line"/>
			<point x="232" y="478" type="line"/>
		</contour>
	</outline>
</glyph>
<glyph name="dotaccentcmb" format="1">
	<unicode hex="0307"/>
	<advance width="600"/>
	<outline>
		<contour>
			<point x="300" y="600" type="curve" smooth="yes"/>
			<point x="322" y="600"/>
			<point x="340" y="616"/>
			<point x="340" y="642" type="curve" smooth="yes"/>
			<point x="340" y="668"/>
			<point x="322" y="684"/>
			<point x="300" y="684" type="curve" smooth="yes"/>
			<point x="278" y="684"/>
			<point x="260" y="668"/>
			<point x="260" y="642" type="curve" smooth="yes"/>
			<point x="260" y="616"/>
			<point x="278" y="600"/>
		</contour>
		<contour>
			<point name="_aboveLC" x="300" y="500" type="move"/>
		</contour>
		<contour>
			<point name="aboveLC" x="300" y="674" type="move"/>
		</contour>
	</outline>
</glyph>
<glyph name="hungarumlautcmb" format="1">
	<unicode hex="030B"/>
	<advance width="600"/>
	<outline>
		<contour>
			<point x="240" y="570" type="line"/>
			<point x="332" y="730" type="line"/>
			<point x="306" y="746" type="line"/>
			<point x="220" y="580" type="line"/>
		</contour>
		<contour>
			<point x="368" y="570" type="line"/>
			<point x="460" y="730" type="line"/>
			<point x="434" y="746" type="line"/>
			<point x="348" y="580" type="line"/>
		</contour>
		<contour>
			<point name="_aboveLC" x="300" y="500" type="move"/>
		</contour>
	</outline>
</glyph>
<glyph name="caroncmb" format="1">
	<unicode hex="030C"/>
	<advance width="600"/>
	<outline>
		<contour>
			<point x="286" y="572" type="line"/>
			<point x="314" y="572" type="line"/>
			<point x="432" y="718" type="line"/>
			<point x="414" y="734" type="line"/>
			<point x="302" y="604" type="line"/>
			<point x="298" y="604" type="line"/>
			<point x="186" y="734" type="line"/>
			<point x="168" y="718" type="line"/>
		</contour>
		<contour>
			<point name="_aboveLC" x="300" y="500" type="move"/>
		</contour>
	</outline>
</glyph>
<glyph name="dblgravecmb" format="1">
	<unicode hex="030F"/>
	<advance width="600"/>
	<outline>
		<contour>
			<point x="232" y="570" type="line"/>
			<point x="252" y="580" type="line"/>
			<point x="166" y="746" type="line"/>
			<point x="140" y="730" type="line"/>
		</contour>
		<contour>
			<point x="360" y="570" type="line"/>
			<point x="380" y="580" type="line"/>
			<point x="294" y="746" type="line"/>
			<point x="268" y="730" type="line"/>
		</contour>
		<contour>
			<point name="_aboveLC" x="300" y="500" type="move"/>
		</contour>
	</outline>
</glyph>
<glyph name="righttackbelowcmb" format="1">
	<unicode hex="0319"/>
	<advance width="600"/>
	<outline>
		<contour>
			<point x="226" y="-242" type="line"/>
			<point x="254" y="-242" type="line"/>
			<point x="254" y="-166" type="line"/>
			<point x="366" y="-166" type="line"/>
			<point x="366" y="-138" type="line"/>
			<point x="254" y="-138" type="line"/>
			<point x="254" y="-62" type="line"/>
			<point x="226" y="-62" type="line"/>
		</contour>
		<contour>
			<point name="_belowLC" x="300" y="-20" type="move"/>
		</contour>
	</outline>
</glyph>
<glyph name="ringhalfleftbelowcmb" format="1">
	<unicode hex="031C"/>
	<advance width="600"/>
	<outline>
		<contour>
			<point x="358" y="-256" type="curve"/>
			<point x="358" y="-236" type="line"/>
			<point x="304" y="-236"/>
			<point x="272" y="-209"/>
			<point x="272" y="-166" type="curve" smooth="yes"/>
			<point x="272" y="-123"/>
			<point x="304" y="-96"/>
			<point x="358" y="-96" type="curve"/>
			<point x="358" y="-76" type="line"/>
			<point x="288" y="-74"/>
			<point x="242" y="-107"/>
			<point x="242" y="-166" type="curve" smooth="yes"/>
			<point x="242" y="-225"/>
			<point x="288" y="-258"/>
		</contour>
		<contour>
			<point name="_belowLC" x="300" y="-20" type="move"/>
		</contour>
	</outline>
</glyph>
<glyph name="downtackbelowcmb" format="2">
	<unicode hex="031E"/>
	<advance width="600"/>
	<outline>
		<contour>
			<point x="286" y="-242" type="line"/>
			<point x="314" y="-242" type="line"/>
			<point x="314" y="-136" type="line"/>
			<point x="406" y="-136" type="line"/>
			<point x="406" y="-108" type="line"/>
			<point x="194" y="-108" type="line"/>
			<point x="194" y="-136" type="line"/>
			<point x="286" y="-136" type="line"/>
		</contour>
	</outline>
	<anchor name="_belowLC" x="300" y="-20"/>
</glyph>
<glyph name="minusbelowcmb" format="2">
	<unicode hex="0320"/>
	<advance width="600"/>
	<outline>
		<contour>
			<point x="194" y="-146" type="line"/>
			<point x="406" y="-146" type="line"/>
			<point x="406" y="-118" type="line"/>
			<point x="194" y="-118" type="line"/>
		</contour>
	</outline>
	<anchor name="_belowLC" x="300" y="-20"/>
</glyph>
<glyph name="ringhalfrightbelowcmb" format="2">
	<unicode hex="0339"/>
	<advance width="600"/>
	<outline>
		<contour>
			<point x="242" y="-256" type="line"/>
			<point x="312" y="-258"/>
			<point x="358" y="-225"/>
			<point x="358" y="-166" type="curve" smooth="yes"/>
			<point x="358" y="-107"/>
			<point x="312" y="-74"/>
			<point x="242" y="-76" type="curve"/>
			<point x="242" y="-96" type="line"/>
			<point x="296" y="-96"/>
			<point x="328" y="-123"/>
			<point x="328" y="-166" type="curve" smooth="yes"/>
			<point x="328" y="-209"/>
			<point x="296" y="-236"/>
			<point x="242" y="-236" type="curve"/>
		</contour>
	</outline>
	<anchor name="_belowLC" x="300" y="-20"/>
</glyph>
<glyph name="bridgeinvertedbelowcmb" format="1">
	<unicode hex="033A"/>
	<advance width="600"/>
	<outline>
		<contour>
			<point x="184" y="-234" type="line"/>
			<point x="416" y="-234" type="line"/>
			<point x="416" y="-90" type="line"/>
			<point x="390" y="-90" type="line"/>
			<point x="390" y="-206" type="line"/>
			<point x="210" y="-206" type="line"/>
			<point x="210" y="-90" type="line"/>
			<point x="184" y="-90" type="line"/>
		</contour>
		<contour>
			<point name="_belowLC" x="300" y="-20" type="move"/>
		</contour>
	</outline>
</glyph>
<glyph name="squarebelowcmb" format="2">
	<unicode hex="033B"/>
	<advance width="600"/>
	<outline>
		<contour>
			<point x="184" y="-234" type="line"/>
			<point x="416" y="-234" type="line"/>
			<point x="416" y="-86" type="line"/>
			<point x="184" y="-86" type="line"/>
		</contour>
		<contour>
			<point x="210" y="-206" type="line"/>
			<point x="210" y="-114" type="line"/>
			<point x="390" y="-114" type="line"/>
			<point x="390" y="-206" type="line"/>
		</contour>
	</outline>
	<anchor name="_belowLC" x="300" y="-20"/>
</glyph>
<glyph name="tonoscmb" format="1">
	<unicode hex="0341"/>
	<advance width="600"/>
	<outline>
		<contour>
			<point x="304" y="560" type="line"/>
			<point x="376" y="764" type="line"/>
			<point x="338" y="774" type="line"/>
			<point x="280" y="566" type="line"/>
		</contour>
		<contour>
			<point name="_aboveLC" x="300" y="500" type="move"/>
		</contour>
	</outline>
</glyph>
<glyph name="Omicrontonos" format="1">
	<unicode hex="038C"/>
	<advance width="600"/>
	<outline>
		<contour>
			<point x="344" y="-12" type="curve" smooth="yes"/>
			<point x="460" y="-12"/>
			<point x="544" y="114"/>
			<point x="544" y="332" type="curve" smooth="yes"/>
			<point x="544" y="550"/>
			<point x="460" y="672"/>
			<point x="344" y="672" type="curve" smooth="yes"/>
			<point x="227" y="672"/>
			<point x="144" y="550"/>
			<point x="144" y="332" type="curve" smooth="yes"/>
			<point x="144" y="114"/>
			<point x="227" y="-12"/>
		</contour>
		<contour>
			<point x="344" y="18" type="curve" smooth="yes"/>
			<point x="245" y="18"/>
			<point x="178" y="132"/>
			<point x="178" y="332" type="curve" smooth="yes"/>
			<point x="178" y="532"/>
			<point x="245" y="642"/>
			<point x="344" y="642" type="curve" smooth="yes"/>
			<point x="442" y="642"/>
			<point x="510" y="532"/>
			<point x="510" y="332" type="curve" smooth="yes"/>
			<point x="510" y="132"/>
			<point x="442" y="18"/>
		</contour>
		<component base="tonos.cap" xOffset="-220"/>
	</outline>
</glyph>
<glyph name="Delta" format="2">
	<unicode hex="0394"/>
	<advance width="600"/>
	<outline>
		<contour>
			<point x="53" y="0" type="line"/>
			<point x="547" y="0" type="line"/>
			<point x="547" y="18" type="line"/>
			<point x="315" y="660" type="line"/>
			<point x="285" y="660" type="line"/>
			<point x="53" y="18" type="line"/>
		</contour>
		<contour>
			<point x="89" y="28" type="line"/>
			<point x="219" y="392" type="line" smooth="yes"/>
			<point x="246" y="468"/>
			<point x="270" y="540"/>
			<point x="299" y="622" type="curve"/>
			<point x="303" y="622" type="line"/>
			<point x="330" y="540"/>
			<point x="354" y="468"/>
			<point x="381" y="392" type="curve" smooth="yes"/>
			<point x="511" y="28" type="line"/>
		</contour>
	</outline>
</glyph>
<glyph name="Lambda" format="2">
	<unicode hex="039B"/>
	<advance width="600"/>
	<outline>
		<contour>
			<point x="65" y="0" type="line"/>
			<point x="97" y="0" type="line"/>
			<point x="225" y="396" type="line" smooth="yes"/>
			<point x="251" y="478"/>
			<point x="269" y="538"/>
			<point x="297" y="619" type="curve"/>
			<point x="301" y="619" type="line"/>
			<point x="329" y="538"/>
			<point x="347" y="478"/>
			<point x="373" y="396" type="curve" smooth="yes"/>
			<point x="501" y="0" type="line"/>
			<point x="535" y="0" type="line"/>
			<point x="315" y="660" type="line"/>
			<point x="283" y="660" type="line"/>
		</contour>
	</outline>
</glyph>
<glyph name="gamma" format="1">
	<unicode hex="03B3"/>
	<advance width="600"/>
	<outline>
		<contour>
			<point x="284" y="-180" type="curve"/>
			<point x="314" y="-180" type="line"/>
			<point x="314" y="-124"/>
			<point x="312" y="-56"/>
			<point x="306" y="-2" type="curve"/>
			<point x="432" y="194"/>
			<point x="486" y="316"/>
			<point x="520" y="478" type="curve"/>
			<point x="488" y="478" type="line"/>
			<point x="464" y="330"/>
			<point x="391" y="183"/>
			<point x="305" y="41" type="curve"/>
			<point x="301" y="41" type="line"/>
			<point x="268" y="203"/>
			<point x="186" y="388"/>
			<point x="98" y="490" type="curve"/>
			<point x="70" y="478" type="line"/>
			<point x="176" y="360"/>
			<point x="286" y="108"/>
			<point x="286" y="-72" type="curve" smooth="yes"/>
			<point x="286" y="-114"/>
			<point x="286" y="-134"/>
		</contour>
	</outline>
</glyph>
<glyph name="iota" format="1">
	<unicode hex="03B9"/>
	<advance width="600"/>
	<outline>
		<contour>
			<point x="406" y="-12" type="curve" smooth="yes"/>
			<point x="448" y="-12"/>
			<point x="478" y="-2"/>
			<point x="512" y="14" type="curve"/>
			<point x="500" y="38" type="line"/>
			<point x="466" y="22"/>
			<point x="436" y="16"/>
			<point x="408" y="16" type="curve" smooth="yes"/>
			<point x="342" y="16"/>
			<point x="308" y="54"/>
			<point x="308" y="132" type="curve" smooth="yes"/>
			<point x="308" y="247"/>
			<point x="310" y="363"/>
			<point x="310" y="478" type="curve"/>
			<point x="96" y="478" type="line"/>
			<point x="96" y="450" type="line"/>
			<point x="280" y="450" type="line"/>
			<point x="280" y="138" type="line" smooth="yes"/>
			<point x="280" y="31"/>
			<point x="326" y="-12"/>
		</contour>
		<contour>
			<point name="aboveLC" x="286" y="500" type="move"/>
		</contour>
	</outline>
</glyph>
<glyph name="mu" format="2">
	<unicode hex="03BC"/>
	<advance width="600"/>
	<outline>
		<contour>
			<point x="100" y="-180" type="line"/>
			<point x="130" y="-180" type="line"/>
			<point x="126" y="-94"/>
			<point x="126" y="-55"/>
			<point x="126" y="64" type="curve"/>
			<point x="159" y="3"/>
			<point x="206" y="-12"/>
			<point x="266" y="-12" type="curve" smooth="yes"/>
			<point x="334" y="-12"/>
			<point x="399" y="22"/>
			<point x="448" y="102" type="curve"/>
			<point x="450" y="102" type="line"/>
			<point x="444" y="10"/>
			<point x="458" y="-12"/>
			<point x="498" y="-12" type="curve" smooth="yes"/>
			<point x="509" y="-12"/>
			<point x="516" y="-10"/>
			<point x="524" y="-8" type="curve"/>
			<point x="518" y="18" type="line"/>
			<point x="508" y="16"/>
			<point x="504" y="16"/>
			<point x="500" y="16" type="curve" smooth="yes"/>
			<point x="488" y="16"/>
			<point x="478" y="26"/>
			<point x="478" y="46" type="curve" smooth="yes"/>
			<point x="478" y="190"/>
			<point x="479" y="334"/>
			<point x="480" y="478" type="curve"/>
			<point x="450" y="478" type="line"/>
			<point x="450" y="144" type="line"/>
			<point x="382" y="29"/>
			<point x="320" y="16"/>
			<point x="262" y="16" type="curve" smooth="yes"/>
			<point x="168" y="16"/>
			<point x="130" y="80"/>
			<point x="130" y="184" type="curve" smooth="yes"/>
			<point x="130" y="478" type="line"/>
			<point x="100" y="478" type="line"/>
		</contour>
	</outline>
</glyph>
<glyph name="sigma.end" format="1">
	<unicode hex="03C2"/>
	<advance width="600"/>
	<outline>
		<contour>
			<point x="420" y="-176" type="line"/>
			<point x="458" y="-128"/>
			<point x="480" y="-84"/>
			<point x="480" y="-52" type="curve" smooth="yes"/>
			<point x="480" y="4"/>
			<point x="452" y="25"/>
			<point x="344" y="46" type="curve" smooth="yes"/>
			<point x="235" y="67"/>
			<point x="136" y="112"/>
			<point x="136" y="252" type="curve" smooth="yes"/>
			<point x="136" y="378"/>
			<point x="223" y="462"/>
			<point x="338" y="462" type="curve" smooth="yes"/>
			<point x="406" y="462"/>
			<point x="449" y="438"/>
			<point x="492" y="398" type="curve"/>
			<point x="512" y="420" type="line"/>
			<point x="471" y="458"/>
			<point x="424" y="490"/>
			<point x="338" y="490" type="curve" smooth="yes"/>
			<point x="213" y="490"/>
			<point x="104" y="406"/>
			<point x="104" y="252" type="curve" smooth="yes"/>
			<point x="104" y="98"/>
			<point x="208" y="42"/>
			<point x="326" y="20" type="curve" smooth="yes"/>
			<point x="438" y="-1"/>
			<point x="450" y="-22"/>
			<point x="450" y="-54" type="curve" smooth="yes"/>
			<point x="450" y="-85"/>
			<point x="434" y="-110"/>
			<point x="394" y="-158" type="curve"/>
		</contour>
	</outline>
</glyph>
<glyph name="upsilon" format="2">
	<unicode hex="03C5"/>
	<advance width="600"/>
	<outline>
		<contour>
			<point x="294" y="-12" type="curve" smooth="yes"/>
			<point x="413" y="-12"/>
			<point x="518" y="74"/>
			<point x="518" y="249" type="curve" smooth="yes"/>
			<point x="518" y="331"/>
			<point x="502" y="408"/>
			<point x="470" y="490" type="curve"/>
			<point x="440" y="480" type="line"/>
			<point x="474" y="398"/>
			<point x="486" y="325"/>
			<point x="486" y="250" type="curve" smooth="yes"/>
			<point x="486" y="90"/>
			<point x="400" y="16"/>
			<point x="296" y="16" type="curve" smooth="yes"/>
			<point x="205" y="16"/>
			<point x="122" y="57"/>
			<point x="122" y="186" type="curve" smooth="yes"/>
			<point x="122" y="237"/>
			<point x="128" y="312"/>
			<point x="128" y="372" type="curve" smooth="yes"/>
			<point x="128" y="412"/>
			<point x="128" y="444"/>
			<point x="122" y="478" type="curve"/>
			<point x="92" y="478" type="line"/>
			<point x="98" y="430"/>
			<point x="98" y="398"/>
			<point x="98" y="360" type="curve" smooth="yes"/>
			<point x="98" y="302"/>
			<point x="94" y="243"/>
			<point x="94" y="185" type="curve" smooth="yes"/>
			<point x="94" y="39"/>
			<point x="184" y="-12"/>
		</contour>
	</outline>
	<anchor name="aboveLC" x="300" y="500"/>
</glyph>
<glyph name="koppa" format="2">
	<unicode hex="03D9"/>
	<advance width="600"/>
	<outline>
		<contour>
			<point x="300" y="-12" type="curve" smooth="yes"/>
			<point x="429" y="-12"/>
			<point x="526" y="78"/>
			<point x="526" y="238" type="curve" smooth="yes"/>
			<point x="526" y="400"/>
			<point x="429" y="490"/>
			<point x="300" y="490" type="curve" smooth="yes"/>
			<point x="171" y="490"/>
			<point x="74" y="400"/>
			<point x="74" y="238" type="curve" smooth="yes"/>
			<point x="74" y="78"/>
			<point x="171" y="-12"/>
		</contour>
		<contour>
			<point x="300" y="16" type="curve" smooth="yes"/>
			<point x="182" y="16"/>
			<point x="106" y="104"/>
			<point x="106" y="238" type="curve" smooth="yes"/>
			<point x="106" y="372"/>
			<point x="182" y="462"/>
			<point x="300" y="462" type="curve" smooth="yes"/>
			<point x="418" y="462"/>
			<point x="494" y="372"/>
			<point x="494" y="238" type="curve" smooth="yes"/>
			<point x="494" y="104"/>
			<point x="418" y="16"/>
		</contour>
		<contour>
			<point x="288" y="-180" type="line"/>
			<point x="318" y="-180" type="line"/>
			<point x="318" y="-94"/>
			<point x="318" y="-76"/>
			<point x="316" y="8" type="curve"/>
			<point x="288" y="7" type="line"/>
		</contour>
	</outline>
</glyph>
<glyph name="ghe" format="1">
	<unicode hex="0433"/>
	<advance width="600"/>
	<outline>
		<contour>
			<point x="170" y="0" type="line"/>
			<point x="200" y="0" type="line"/>
			<point x="200" y="450" type="line"/>
			<point x="520" y="450" type="line"/>
			<point x="520" y="478" type="line"/>
			<point x="170" y="478" type="line"/>
		</contour>
		<contour>
			<point name="aboveLC" x="360" y="500" type="move"/>
		</contour>
	</outline>
</glyph>
<glyph name="de" format="1">
	<unicode hex="0434"/>
	<advance width="600"/>
	<outline>
		<contour>
			<point x="442" y="0" type="line"/>
			<point x="472" y="0" type="line"/>
			<point x="472" y="478" type="line"/>
			<point x="184" y="478" type="line"/>
			<point x="156" y="248" type="line" smooth="yes"/>
			<point x="135" y="78"/>
			<point x="110" y="44"/>
			<point x="80" y="28" type="curve"/>
			<point x="104" y="10" type="line"/>
			<point x="126" y="26"/>
			<point x="162" y="56"/>
			<point x="184" y="246" type="curve" smooth="yes"/>
			<point x="208" y="450" type="line"/>
			<point x="442" y="450" type="line"/>
		</contour>
		<contour>
			<point x="66" y="-172" type="line"/>
			<point x="92" y="-172" type="line"/>
			<point x="92" y="0" type="line"/>
			<point x="506" y="0" type="line"/>
			<point x="506" y="-172" type="line"/>
			<point x="532" y="-172" type="line"/>
			<point x="536" y="12" type="line"/>
			<point x="536" y="28" type="line"/>
			<point x="62" y="28" type="line"/>
			<point x="62" y="12" type="line"/>
		</contour>
		<contour>
			<point name="aboveLC" x="340" y="500" type="move"/>
		</contour>
	</outline>
</glyph>
<glyph name="te" format="1">
	<unicode hex="0442"/>
	<advance width="600"/>
	<outline>
		<contour>
			<point x="285" y="0" type="line"/>
			<point x="315" y="0" type="line"/>
			<point x="315" y="450" type="line"/>
			<point x="521" y="450" type="line"/>
			<point x="521" y="478" type="line"/>
			<point x="79" y="478" type="line"/>
			<point x="79" y="450" type="line"/>
			<point x="285" y="450" type="line"/>
		</contour>
		<contour>
			<point name="aboveLC" x="300" y="500" type="move"/>
		</contour>
	</outline>
</glyph>
<glyph name="nje" format="1">
	<unicode hex="045A"/>
	<advance width="600"/>
	<outline>
		<contour>
			<point x="80" y="0" type="line"/>
			<point x="110" y="0" type="line"/>
			<point x="110" y="238" type="line"/>
			<point x="286" y="238" type="line"/>
			<point x="286" y="0" type="line"/>
			<point x="316" y="0" type="line"/>
			<point x="316" y="478" type="line"/>
			<point x="286" y="478" type="line"/>
			<point x="286" y="266" type="line"/>
			<point x="110" y="266" type="line"/>
			<point x="110" y="478" type="line"/>
			<point x="80" y="478" type="line"/>
		</contour>
		<contour>
			<point x="286" y="0" type="line"/>
			<point x="358" y="0" type="line" smooth="yes"/>
			<point x="470" y="0"/>
			<point x="532" y="50"/>
			<point x="532" y="142" type="curve" smooth="yes"/>
			<point x="532" y="234"/>
			<point x="470" y="282"/>
			<point x="358" y="282" type="curve" smooth="yes"/>
			<point x="316" y="282" type="line"/>
			<point x="316" y="478" type="line"/>
			<point x="286" y="478" type="line"/>
		</contour>
		<contour>
			<point x="316" y="28" type="line"/>
			<point x="316" y="254" type="line"/>
			<point x="348" y="254" type="line" smooth="yes"/>
			<point x="453" y="254"/>
			<point x="500" y="221"/>
			<point x="500" y="142" type="curve" smooth="yes"/>
			<point x="500" y="63"/>
			<point x="453" y="28"/>
			<point x="348" y="28" type="curve" smooth="yes"/>
		</contour>
	</outline>
</glyph>
<glyph name="Gheup" format="2">
	<unicode hex="0490"/>
	<advance width="600"/>
	<outline>
		<contour>
			<point x="156" y="0" type="line"/>
			<point x="188" y="0" type="line"/>
			<point x="188" y="632" type="line"/>
			<point x="522" y="632" type="line"/>
			<point x="512" y="660" type="line"/>
			<point x="156" y="660" type="line"/>
		</contour>
		<contour>
			<point x="464" y="632" type="line"/>
			<point x="522" y="632" type="line"/>
			<point x="530" y="832" type="line"/>
			<point x="504" y="832" type="line"/>
			<point x="492" y="660" type="line"/>
			<point x="464" y="660" type="line"/>
		</contour>
	</outline>
</glyph>
<glyph name="ghestroke" format="1">
	<unicode hex="0493"/>
	<advance width="600"/>
	<outline>
		<contour>
			<point x="170" y="0" type="line"/>
			<point x="200" y="0" type="line"/>
			<point x="200" y="450" type="line"/>
			<point x="520" y="450" type="line"/>
			<point x="520" y="478" type="line"/>
			<point x="170" y="478" type="line"/>
		</contour>
		<contour>
			<point x="88" y="228" type="line"/>
			<point x="374" y="228" type="line"/>
			<point x="374" y="256" type="line"/>
			<point x="170" y="256" type="line"/>
			<point x="88" y="252" type="line"/>
		</contour>
	</outline>
</glyph>
<glyph name="Ustraightstroke" format="2">
	<unicode hex="04B0"/>
	<advance width="600"/>
	<outline>
		<contour>
			<point x="126" y="242" type="line"/>
			<point x="474" y="242" type="line"/>
			<point x="474" y="270" type="line"/>
			<point x="210" y="270" type="line"/>
			<point x="126" y="268" type="line"/>
		</contour>
		<component base="Ustraight"/>
	</outline>
	<anchor name="aboveUC" x="300" y="680"/>
</glyph>
<glyph name="chedescender" format="2">
	<unicode hex="04B7"/>
	<advance width="600"/>
	<outline>
		<contour>
			<point x="436" y="0" type="line"/>
			<point x="466" y="0" type="line"/>
			<point x="466" y="478" type="line"/>
			<point x="436" y="478" type="line"/>
			<point x="436" y="246" type="line"/>
			<point x="392" y="236"/>
			<point x="361" y="230"/>
			<point x="318" y="230" type="curve" smooth="yes"/>
			<point x="194" y="230"/>
			<point x="138" y="267"/>
			<point x="138" y="364" type="curve" smooth="yes"/>
			<point x="138" y="478" type="line"/>
			<point x="108" y="478" type="line"/>
			<point x="108" y="364" type="line" smooth="yes"/>
			<point x="108" y="249"/>
			<point x="174" y="202"/>
			<point x="314" y="202" type="curve" smooth="yes"/>
			<point x="369" y="202"/>
			<point x="387" y="208"/>
			<point x="436" y="218" type="curve"/>
		</contour>
		<contour>
			<point x="500" y="-172" type="line"/>
			<point x="526" y="-172" type="line"/>
			<point x="530" y="12" type="line"/>
			<point x="530" y="28" type="line"/>
			<point x="456" y="28" type="line"/>
			<point x="456" y="0" type="line"/>
			<point x="500" y="0" type="line"/>
		</contour>
	</outline>
</glyph>
<glyph name="b.sups" format="2">
	<unicode hex="1D47"/>
	<advance width="600"/>
	<outline>
		<contour>
			<point x="320" y="402" type="curve" smooth="yes"/>
			<point x="398" y="402"/>
			<point x="468" y="466"/>
			<point x="468" y="573" type="curve" smooth="yes"/>
			<point x="468" y="672"/>
			<point x="423" y="734"/>
			<point x="332" y="734" type="curve" smooth="yes"/>
			<point x="291" y="734"/>
			<point x="250" y="712"/>
			<point x="216" y="685" type="curve"/>
			<point x="218" y="746" type="line"/>
			<point x="218" y="884" type="line"/>
			<point x="186" y="884" type="line"/>
			<point x="186" y="410" type="line"/>
			<point x="212" y="410" type="line"/>
			<point x="216" y="440" type="line"/>
			<point x="217" y="440" type="line"/>
			<point x="249" y="417"/>
			<point x="287" y="402"/>
		</contour>
		<contour>
			<point x="317" y="430" type="curve" smooth="yes"/>
			<point x="291" y="430"/>
			<point x="255" y="441"/>
			<point x="218" y="470" type="curve"/>
			<point x="218" y="655" type="line"/>
			<point x="257" y="688"/>
			<point x="294" y="706"/>
			<point x="327" y="706" type="curve" smooth="yes"/>
			<point x="405" y="706"/>
			<point x="434" y="650"/>
			<point x="434" y="573" type="curve" smooth="yes"/>
			<point x="434" y="488"/>
			<point x="386" y="430"/>
		</contour>
	</outline>
</glyph>
<glyph name="e.sups" format="1">
	<unicode hex="1D49"/>
	<advance width="600"/>
	<outline>
		<contour>
			<point x="319" y="402" type="curve" smooth="yes"/>
			<point x="372" y="402"/>
			<point x="406" y="415"/>
			<point x="438" y="434" type="curve"/>
			<point x="426" y="456" type="line"/>
			<point x="398" y="439"/>
			<point x="363" y="429"/>
			<point x="323" y="429" type="curve" smooth="yes"/>
			<point x="249" y="429"/>
			<point x="182" y="478"/>
			<point x="182" y="568" type="curve" smooth="yes"/>
			<point x="182" y="660"/>
			<point x="247" y="707"/>
			<point x="311" y="707" type="curve" smooth="yes"/>
			<point x="378" y="707"/>
			<point x="424" y="670"/>
			<point x="424" y="578" type="curve"/>
			<point x="432" y="590" type="line"/>
			<point x="164" y="590" type="line"/>
			<point x="164" y="564" type="line"/>
			<point x="451" y="564" type="line"/>
			<point x="452" y="572"/>
			<point x="453" y="580"/>
			<point x="453" y="588" type="curve" smooth="yes"/>
			<point x="453" y="681"/>
			<point x="398" y="734"/>
			<point x="311" y="734" type="curve" smooth="yes"/>
			<point x="230" y="734"/>
			<point x="152" y="672"/>
			<point x="152" y="568" type="curve" smooth="yes"/>
			<point x="152" y="464"/>
			<point x="228" y="402"/>
		</contour>
	</outline>
</glyph>
<glyph name="g.sups" format="1">
	<unicode hex="1D4D"/>
	<advance width="600"/>
	<outline>
		<contour>
			<point x="310" y="258" type="curve" smooth="yes"/>
			<point x="415" y="258"/>
			<point x="481" y="310"/>
			<point x="481" y="366" type="curve" smooth="yes"/>
			<point x="481" y="417"/>
			<point x="445" y="438"/>
			<point x="363" y="438" type="curve" smooth="yes"/>
			<point x="284" y="438" type="line" smooth="yes"/>
			<point x="239" y="438"/>
			<point x="213" y="451"/>
			<point x="213" y="481" type="curve" smooth="yes"/>
			<point x="213" y="498"/>
			<point x="225" y="513"/>
			<point x="243" y="524" type="curve"/>
			<point x="263" y="515"/>
			<point x="282" y="510"/>
			<point x="302" y="510" type="curve" smooth="yes"/>
			<point x="368" y="510"/>
			<point x="419" y="555"/>
			<point x="419" y="621" type="curve" smooth="yes"/>
			<point x="419" y="654"/>
			<point x="403" y="681"/>
			<point x="384" y="700" type="curve"/>
			<point x="480" y="700" type="line"/>
			<point x="480" y="726" type="line"/>
			<point x="346" y="726" type="line"/>
			<point x="334" y="732"/>
			<point x="319" y="734"/>
			<point x="302" y="734" type="curve" smooth="yes"/>
			<point x="236" y="734"/>
			<point x="183" y="687"/>
			<point x="183" y="621" type="curve" smooth="yes"/>
			<point x="183" y="583"/>
			<point x="201" y="556"/>
			<point x="222" y="539" type="curve"/>
			<point x="222" y="536" type="line"/>
			<point x="197" y="519"/>
			<point x="183" y="497"/>
			<point x="183" y="476" type="curve" smooth="yes"/>
			<point x="183" y="450"/>
			<point x="200" y="433"/>
			<point x="216" y="425" type="curve"/>
			<point x="216" y="423" type="line"/>
			<point x="182" y="402"/>
			<point x="162" y="373"/>
			<point x="162" y="349" type="curve" smooth="yes"/>
			<point x="162" y="293"/>
			<point x="210" y="258"/>
		</contour>
		<contour>
			<point x="302" y="535" type="curve" smooth="yes"/>
			<point x="253" y="535"/>
			<point x="215" y="570"/>
			<point x="215" y="621" type="curve" smooth="yes"/>
			<point x="215" y="672"/>
			<point x="253" y="709"/>
			<point x="302" y="709" type="curve" smooth="yes"/>
			<point x="350" y="709"/>
			<point x="388" y="672"/>
			<point x="388" y="621" type="curve" smooth="yes"/>
			<point x="388" y="570"/>
			<point x="350" y="535"/>
		</contour>
		<contour>
			<point x="308" y="283" type="curve" smooth="yes"/>
			<point x="229" y="283"/>
			<point x="192" y="311"/>
			<point x="192" y="349" type="curve" smooth="yes"/>
			<point x="192" y="371"/>
			<point x="205" y="394"/>
			<point x="243" y="414" type="curve"/>
			<point x="258" y="409"/>
			<point x="274" y="408"/>
			<point x="290" y="408" type="curve" smooth="yes"/>
			<point x="365" y="408" type="line" smooth="yes"/>
			<point x="421" y="408"/>
			<point x="449" y="397"/>
			<point x="449" y="362" type="curve" smooth="yes"/>
			<point x="449" y="323"/>
			<point x="396" y="283"/>
		</contour>
	</outline>
</glyph>
<glyph name="iotaadscript" format="1">
	<unicode hex="1FBE"/>
	<advance width="600"/>
	<outline>
		<contour>
			<point x="335" y="-12" type="curve" smooth="yes"/>
			<point x="350" y="-12"/>
			<point x="362" y="-8"/>
			<point x="371" y="-4" type="curve"/>
			<point x="365" y="22" type="line"/>
			<point x="353" y="18"/>
			<point x="346" y="16"/>
			<point x="337" y="16" type="curve" smooth="yes"/>
			<point x="321" y="16"/>
			<point x="309" y="28"/>
			<point x="309" y="52" type="curve" smooth="yes"/>
			<point x="309" y="172"/>
			<point x="309" y="278"/>
			<point x="311" y="398" type="curve"/>
			<point x="281" y="398" type="line"/>
			<point x="281" y="58" type="line" smooth="yes"/>
			<point x="281" y="8"/>
			<point x="301" y="-12"/>
		</contour>
	</outline>
</glyph>
<glyph name="emdash" format="1">
	<unicode hex="2014"/>
	<advance width="600"/>
	<outline>
		<contour>
			<point x="0" y="230" type="line"/>
			<point x="600" y="230" type="line"/>
			<point x="600" y="270" type="line"/>
			<point x="0" y="270" type="line"/>
		</contour>
	</outline>
</glyph>
<glyph name="underscoredbl" format="2">
	<unicode hex="2017"/>
	<advance width="600"/>
	<outline>
		<contour>
			<point x="60" y="-118" type="line"/>
			<point x="540" y="-118" type="line"/>
			<point x="540" y="-82" type="line"/>
			<point x="60" y="-82" type="line"/>
		</contour>
		<contour>
			<point x="60" y="-218" type="line"/>
			<point x="540" y="-218" type="line"/>
			<point x="540" y="-182" type="line"/>
			<point x="60" y="-182" type="line"/>
		</contour>
	</outline>
</glyph>
<glyph name="three.subs" format="2">
	<unicode hex="2083"/>
	<advance width="600"/>
	<outline>
		<contour>
			<point x="296" y="-182" type="curve" smooth="yes"/>
			<point x="374" y="-182"/>
			<point x="434" y="-140"/>
			<point x="434" y="-68" type="curve" smooth="yes"/>
			<point x="434" y="-12"/>
			<point x="392" y="22"/>
			<point x="330" y="30" type="curve"/>
			<point x="388" y="48"/>
			<point x="418" y="80"/>
			<point x="418" y="130" type="curve" smooth="yes"/>
			<point x="418" y="194"/>
			<point x="362" y="232"/>
			<point x="292" y="232" type="curve" smooth="yes"/>
			<point x="240" y="232"/>
			<point x="195" y="205"/>
			<point x="168" y="170" type="curve"/>
			<point x="188" y="152" type="line"/>
			<point x="215" y="185"/>
			<point x="255" y="206"/>
			<point x="290" y="206" type="curve" smooth="yes"/>
			<point x="350" y="206"/>
			<point x="388" y="174"/>
			<point x="388" y="128" type="curve" smooth="yes"/>
			<point x="388" y="82"/>
			<point x="348" y="40"/>
			<point x="250" y="40" type="curve"/>
			<point x="250" y="16" type="line"/>
			<point x="354" y="16"/>
			<point x="404" y="-14"/>
			<point x="404" y="-68" type="curve" smooth="yes"/>
			<point x="404" y="-124"/>
			<point x="355" y="-156"/>
			<point x="298" y="-156" type="curve" smooth="yes"/>
			<point x="248" y="-156"/>
			<point x="201" y="-129"/>
			<point x="176" y="-90" type="curve"/>
			<point x="152" y="-108" type="line"/>
			<point x="179" y="-147"/>
			<point x="232" y="-182"/>
		</contour>
	</outline>
</glyph>
<glyph name="five.subs" format="1">
	<unicode hex="2085"/>
	<advance width="600"/>
	<outline>
		<contour>
			<point x="300" y="-182" type="curve" smooth="yes"/>
			<point x="378" y="-182"/>
			<point x="440" y="-130"/>
			<point x="440" y="-48" type="curve" smooth="yes"/>
			<point x="440" y="40"/>
			<point x="380" y="86"/>
			<point x="302" y="86" type="curve" smooth="yes"/>
			<point x="266" y="86"/>
			<point x="238" y="77"/>
			<point x="216" y="64" type="curve"/>
			<point x="230" y="192" type="line"/>
			<point x="418" y="192" type="line"/>
			<point x="418" y="220" type="line"/>
			<point x="204" y="220" type="line"/>
			<point x="184" y="36" type="line"/>
			<point x="204" y="22" type="line"/>
			<point x="228" y="41"/>
			<point x="258" y="60"/>
			<point x="300" y="60" type="curve" smooth="yes"/>
			<point x="366" y="60"/>
			<point x="410" y="18"/>
			<point x="410" y="-48" type="curve" smooth="yes"/>
			<point x="410" y="-112"/>
			<point x="364" y="-156"/>
			<point x="302" y="-156" type="curve" smooth="yes"/>
			<point x="243" y="-156"/>
			<point x="203" y="-129"/>
			<point x="176" y="-90" type="curve"/>
			<point x="152" y="-108" type="line"/>
			<point x="181" y="-147"/>
			<point x="227" y="-182"/>
		</contour>
	</outline>
</glyph>
<glyph name="seven.subs" format="1">
	<unicode hex="2087"/>
	<advance width="600"/>
	<outline>
		<contour>
			<point x="262" y="-170" type="curve"/>
			<point x="292" y="-170" type="line"/>
			<point x="300" y="-30"/>
			<point x="333" y="70"/>
			<point x="436" y="202" type="curve"/>
			<point x="436" y="220" type="line"/>
			<point x="160" y="220" type="line"/>
			<point x="160" y="194" type="line"/>
			<point x="402" y="194" type="line"/>
			<point x="311" y="77"/>
			<point x="272" y="-24"/>
		</contour>
	</outline>
</glyph>
<glyph name="peseta" format="1">
	<unicode hex="20A7"/>
	<advance width="600"/>
	<outline>
		<contour>
			<point x="162" y="0" type="line"/>
			<point x="192" y="0" type="line"/>
			<point x="192" y="270" type="line"/>
			<point x="282" y="270" type="line" smooth="yes"/>
			<point x="408" y="270"/>
			<point x="494" y="332"/>
			<point x="494" y="462" type="curve" smooth="yes"/>
			<point x="494" y="590"/>
			<point x="408" y="640"/>
			<point x="282" y="640" type="curve" smooth="yes"/>
			<point x="162" y="640" type="line"/>
		</contour>
		<contour>
			<point x="192" y="298" type="line"/>
			<point x="192" y="612" type="line"/>
			<point x="270" y="612" type="line" smooth="yes"/>
			<point x="394" y="612"/>
			<point x="462" y="574"/>
			<point x="462" y="462" type="curve" smooth="yes"/>
			<point x="462" y="350"/>
			<point x="394" y="298"/>
			<point x="270" y="298" type="curve" smooth="yes"/>
		</contour>
		<contour>
			<point x="60" y="446" type="line"/>
			<point x="580" y="446" type="line"/>
			<point x="580" y="474" type="line"/>
			<point x="164" y="474" type="line"/>
			<point x="60" y="470" type="line"/>
		</contour>
	</outline>
</glyph>
<glyph name="arrowup" format="1">
	<unicode hex="2191"/>
	<advance width="600"/>
	<outline>
		<contour>
			<point x="286" y="-24" type="line"/>
			<point x="314" y="-24" type="line"/>
			<point x="314" y="480" type="line"/>
			<point x="546" y="238" type="line"/>
			<point x="566" y="258" type="line"/>
			<point x="302" y="526" type="line"/>
			<point x="298" y="526" type="line"/>
			<point x="34" y="258" type="line"/>
			<point x="54" y="238" type="line"/>
			<point x="286" y="480" type="line"/>
		</contour>
	</outline>
</glyph>
<glyph name="arrowupdn" format="1">
	<unicode hex="2195"/>
	<advance width="600"/>
	<outline>
		<contour>
			<point x="302" y="-58" type="line"/>
			<point x="506" y="120" type="line"/>
			<point x="486" y="140" type="line"/>
			<point x="314" y="-14" type="line"/>
			<point x="314" y="516" type="line"/>
			<point x="486" y="362" type="line"/>
			<point x="506" y="382" type="line"/>
			<point x="302" y="560" type="line"/>
			<point x="298" y="560" type="line"/>
			<point x="94" y="382" type="line"/>
			<point x="114" y="362" type="line"/>
			<point x="286" y="516" type="line"/>
			<point x="286" y="-14" type="line"/>
			<point x="114" y="140" type="line"/>
			<point x="94" y="120" type="line"/>
			<point x="298" y="-58" type="line"/>
		</contour>
	</outline>
</glyph>
<glyph name="arrowdblleft" format="2">
	<unicode hex="21D0"/>
	<advance width="600"/>
	<outline>
		<contour>
			<point x="288" y="-14" type="line"/>
			<point x="308" y="6" type="line"/>
			<point x="54" y="250" type="line"/>
			<point x="54" y="254" type="line"/>
			<point x="308" y="498" type="line"/>
			<point x="288" y="518" type="line"/>
			<point x="20" y="254" type="line"/>
			<point x="20" y="250" type="line"/>
		</contour>
		<contour>
			<point x="136" y="338" type="line"/>
			<point x="570" y="338" type="line"/>
			<point x="570" y="366" type="line"/>
			<point x="136" y="366" type="line"/>
		</contour>
		<contour>
			<point x="136" y="138" type="line"/>
			<point x="570" y="138" type="line"/>
			<point x="570" y="166" type="line"/>
			<point x="136" y="166" type="line"/>
		</contour>
	</outline>
</glyph>
<glyph name="arrowdblboth" format="1">
	<unicode hex="21D4"/>
	<advance width="600"/>
	<outline>
		<contour>
			<point x="612" y="254" type="line"/>
			<point x="434" y="458" type="line"/>
			<point x="414" y="438" type="line"/>
			<point x="579" y="254" type="line"/>
			<point x="579" y="250" type="line"/>
			<point x="414" y="66" type="line"/>
			<point x="434" y="46" type="line"/>
			<point x="612" y="250" type="line"/>
		</contour>
		<contour>
			<point x="-12" y="250" type="line"/>
			<point x="166" y="46" type="line"/>
			<point x="186" y="66" type="line"/>
			<point x="21" y="250" type="line"/>
			<point x="21" y="254" type="line"/>
			<point x="186" y="438" type="line"/>
			<point x="166" y="458" type="line"/>
			<point x="-12" y="254" type="line"/>
		</contour>
		<contour>
			<point x="91" y="338" type="line"/>
			<point x="509" y="338" type="line"/>
			<point x="509" y="366" type="line"/>
			<point x="91" y="366" type="line"/>
		</contour>
		<contour>
			<point x="91" y="138" type="line"/>
			<point x="509" y="138" type="line"/>
			<point x="509" y="166" type="line"/>
			<point x="91" y="166" type="line"/>
		</contour>
	</outline>
</glyph>
<glyph name="arrowdbllongbothv" format="1">
	<unicode hex="21D5"/>
	<advance width="600"/>
	<outline>
		<contour>
			<point x="302" y="-58" type="line"/>
			<point x="506" y="120" type="line"/>
			<point x="486" y="140" type="line"/>
			<point x="302" y="-25" type="line"/>
			<point x="298" y="-25" type="line"/>
			<point x="114" y="140" type="line"/>
			<point x="94" y="120" type="line"/>
			<point x="298" y="-58" type="line"/>
		</contour>
		<contour>
			<point x="298" y="560" type="line"/>
			<point x="94" y="382" type="line"/>
			<point x="114" y="362" type="line"/>
			<point x="298" y="527" type="line"/>
			<point x="302" y="527" type="line"/>
			<point x="486" y="362" type="line"/>
			<point x="506" y="382" type="line"/>
			<point x="302" y="560" type="line"/>
		</contour>
		<contour>
			<point x="386" y="45" type="line"/>
			<point x="414" y="45" type="line"/>
			<point x="414" y="457" type="line"/>
			<point x="386" y="457" type="line"/>
		</contour>
		<contour>
			<point x="186" y="45" type="line"/>
			<point x="214" y="45" type="line"/>
			<point x="214" y="457" type="line"/>
			<point x="186" y="457" type="line"/>
		</contour>
	</outline>
</glyph>
<glyph name="notexistential" format="1">
	<unicode hex="2204"/>
	<advance width="600"/>
	<outline>
		<component base="existential"/>
		<contour>
			<point x="162" y="-130" type="line"/>
			<point x="196" y="-130" type="line"/>
			<point x="438" y="790" type="line"/>
			<point x="404" y="790" type="line"/>
		</contour>
	</outline>
</glyph>
<glyph name="emptyset" format="1">
	<unicode hex="2205"/>
	<advance width="600"/>
	<outline>
		<contour>
			<point x="108" y="278" type="curve" smooth="yes"/>
			<point x="108" y="383"/>
			<point x="195" y="470"/>
			<point x="300" y="470" type="curve" smooth="yes"/>
			<point x="405" y="470"/>
			<point x="492" y="383"/>
			<point x="492" y="278" type="curve" smooth="yes"/>
			<point x="492" y="173"/>
			<point x="405" y="86"/>
			<point x="300" y="86" type="curve" smooth="yes"/>
			<point x="195" y="86"/>
			<point x="108" y="173"/>
		</contour>
		<contour>
			<point x="80" y="278" type="curve" smooth="yes"/>
			<point x="80" y="156"/>
			<point x="178" y="58"/>
			<point x="300" y="58" type="curve" smooth="yes"/>
			<point x="422" y="58"/>
			<point x="520" y="156"/>
			<point x="520" y="278" type="curve" smooth="yes"/>
			<point x="520" y="400"/>
			<point x="422" y="498"/>
			<point x="300" y="498" type="curve" smooth="yes"/>
			<point x="178" y="498"/>
			<point x="80" y="400"/>
		</contour>
		<contour>
			<point x="100" y="58" type="line"/>
			<point x="520" y="478" type="line"/>
			<point x="500" y="498" type="line"/>
			<point x="80" y="78" type="line"/>
		</contour>
	</outline>
</glyph>
<glyph name="notowner" format="1">
	<unicode hex="220C"/>
	<advance width="600"/>
	<outline>
		<component base="owner"/>
		<contour>
			<point x="132" y="14" type="line"/>
			<point x="166" y="14" type="line"/>
			<point x="468" y="646" type="line"/>
			<point x="434" y="646" type="line"/>
		</contour>
	</outline>
</glyph>
<glyph name="coproduct" format="1">
	<unicode hex="2210"/>
	<advance width="600"/>
	<outline>
		<contour>
			<point x="526" y="640" type="line"/>
			<point x="494" y="640" type="line"/>
			<point x="494" y="-92" type="line"/>
			<point x="108" y="-92" type="line"/>
			<point x="108" y="640" type="line"/>
			<point x="74" y="640" type="line"/>
			<point x="74" y="-120" type="line"/>
			<point x="526" y="-120" type="line"/>
		</contour>
	</outline>
</glyph>
<glyph name="logicaland" format="1">
	<unicode hex="2227"/>
	<advance width="600"/>
	<outline>
		<contour>
			<point x="312" y="522" type="line"/>
			<point x="286" y="522" type="line"/>
			<point x="98" y="138" type="line"/>
			<point x="124" y="138" type="line"/>
			<point x="245" y="387" type="line" smooth="yes"/>
			<point x="264" y="426"/>
			<point x="280" y="463"/>
			<point x="297" y="496" type="curve"/>
			<point x="300" y="496" type="line"/>
			<point x="316" y="463"/>
			<point x="335" y="426"/>
			<point x="354" y="387" type="curve" smooth="yes"/>
			<point x="474" y="138" type="line"/>
			<point x="502" y="138" type="line"/>
		</contour>
	</outline>
</glyph>
<glyph name="logicalor" format="1">
	<unicode hex="2228"/>
	<advance width="600"/>
	<outline>
		<contour>
			<point x="288" y="138" type="line"/>
			<point x="314" y="138" type="line"/>
			<point x="502" y="522" type="line"/>
			<point x="476" y="522" type="line"/>
			<point x="355" y="273" type="line" smooth="yes"/>
			<point x="336" y="234"/>
			<point x="320" y="197"/>
			<point x="303" y="164" type="curve"/>
			<point x="300" y="164" type="line"/>
			<point x="284" y="197"/>
			<point x="265" y="234"/>
			<point x="246" y="273" type="curve" smooth="yes"/>
			<point x="126" y="522" type="line"/>
			<point x="98" y="522" type="line"/>
		</contour>
	</outline>
</glyph>
<glyph name="union" format="1">
	<unicode hex="222A"/>
	<advance width="600"/>
	<outline>
		<contour>
			<point x="486" y="548" type="line"/>
			<point x="454" y="548" type="line"/>
			<point x="454" y="310" type="line" smooth="yes"/>
			<point x="454" y="196"/>
			<point x="394" y="132"/>
			<point x="300" y="132" type="curve" smooth="yes"/>
			<point x="206" y="132"/>
			<point x="146" y="196"/>
			<point x="146" y="310" type="curve" smooth="yes"/>
			<point x="146" y="548" type="line"/>
			<point x="114" y="548" type="line"/>
			<point x="114" y="298" type="line" smooth="yes"/>
			<point x="114" y="178"/>
			<point x="192" y="98"/>
			<point x="300" y="98" type="curve" smooth="yes"/>
			<point x="408" y="98"/>
			<point x="486" y="178"/>
			<point x="486" y="298" type="curve" smooth="yes"/>
		</contour>
	</outline>
</glyph>
<glyph name="reversedtilde" format="1">
	<unicode hex="223D"/>
	<advance width="600"/>
	<outline>
		<contour>
			<point x="210" y="270" type="curve" smooth="yes"/>
			<point x="286" y="270"/>
			<point x="334" y="362"/>
			<point x="392" y="362" type="curve" smooth="yes"/>
			<point x="426" y="362"/>
			<point x="454" y="352"/>
			<point x="480" y="272" type="curve"/>
			<point x="504" y="280" type="line"/>
			<point x="476" y="366"/>
			<point x="432" y="390"/>
			<point x="390" y="390" type="curve" smooth="yes"/>
			<point x="314" y="390"/>
			<point x="266" y="298"/>
			<point x="208" y="298" type="curve" smooth="yes"/>
			<point x="174" y="298"/>
			<point x="146" y="306"/>
			<point x="120" y="388" type="curve"/>
			<point x="96" y="378" type="line"/>
			<point x="124" y="294"/>
			<point x="168" y="270"/>
		</contour>
	</outline>
</glyph>
<glyph name="wreathproduct" format="1">
	<unicode hex="2240"/>
	<advance width="600"/>
	<outline>
		<contour>
			<point x="360" y="420" type="curve" smooth="yes"/>
			<point x="360" y="462"/>
			<point x="336" y="506"/>
			<point x="252" y="534" type="curve"/>
			<point x="242" y="510" type="line"/>
			<point x="324" y="484"/>
			<point x="332" y="456"/>
			<point x="332" y="422" type="curve" smooth="yes"/>
			<point x="332" y="364"/>
			<point x="240" y="316"/>
			<point x="240" y="240" type="curve" smooth="yes"/>
			<point x="240" y="198"/>
			<point x="264" y="154"/>
			<point x="350" y="126" type="curve"/>
			<point x="358" y="150" type="line"/>
			<point x="278" y="176"/>
			<point x="268" y="204"/>
			<point x="268" y="238" type="curve" smooth="yes"/>
			<point x="268" y="296"/>
			<point x="360" y="344"/>
		</contour>
	</outline>
</glyph>
<glyph name="notsimilar" format="1">
	<unicode hex="2241"/>
	<advance width="600"/>
	<outline>
		<component base="asciitilde"/>
		<contour>
			<point x="222" y="140" type="line"/>
			<point x="256" y="140" type="line"/>
			<point x="378" y="520" type="line"/>
			<point x="344" y="520" type="line"/>
		</contour>
	</outline>
</glyph>
<glyph name="notasymptequal" format="1">
	<unicode hex="2244"/>
	<advance width="600"/>
	<outline>
		<component base="asymptequal"/>
		<contour>
			<point x="192" y="86" type="line"/>
			<point x="226" y="86" type="line"/>
			<point x="408" y="620" type="line"/>
			<point x="374" y="620" type="line"/>
		</contour>
	</outline>
</glyph>
<glyph name="approxnotequal" format="1">
	<unicode hex="2246"/>
	<advance width="600"/>
	<outline>
		<component base="congruent"/>
		<contour>≆
			<point x="192" y="-14" type="line"/>
			<point x="226" y="-14" type="line"/>
			<point x="408" y="417" type="line"/>
			<point x="374" y="417" type="line"/>
		</contour>
	</outline>
</glyph>
<glyph name="notapproxequal" format="1">
	<unicode hex="2247"/>
	<advance width="600"/>
	<outline>
		<component base="congruent"/>
		<contour>
			<point x="192" y="-14" type="line"/>
			<point x="226" y="-14" type="line"/>
			<point x="408" y="720" type="line"/>
			<point x="374" y="720" type="line"/>
		</contour>
	</outline>
</glyph>
<glyph name="colonequal" format="1">
	<unicode hex="2254"/>
	<advance width="600"/>
	<outline>
		<contour>
			<point x="80" y="172" type="curve" smooth="yes"/>
			<point x="106" y="172"/>
			<point x="132" y="192"/>
			<point x="132" y="230" type="curve" smooth="yes"/>
			<point x="132" y="268"/>
			<point x="106" y="288"/>
			<point x="80" y="288" type="curve" smooth="yes"/>
			<point x="54" y="288"/>
			<point x="28" y="268"/>
			<point x="28" y="230" type="curve" smooth="yes"/>
			<point x="28" y="192"/>
			<point x="54" y="172"/>
		</contour>
		<contour>
			<point x="80" y="372" type="curve" smooth="yes"/>
			<point x="106" y="372"/>
			<point x="132" y="392"/>
			<point x="132" y="430" type="curve" smooth="yes"/>
			<point x="132" y="468"/>
			<point x="106" y="488"/>
			<point x="80" y="488" type="curve" smooth="yes"/>
			<point x="54" y="488"/>
			<point x="28" y="468"/>
			<point x="28" y="430" type="curve" smooth="yes"/>
			<point x="28" y="392"/>
			<point x="54" y="372"/>
		</contour>
		<contour>
			<point x="168" y="216" type="line"/>
			<point x="572" y="216" type="line"/>
			<point x="572" y="244" type="line"/>
			<point x="168" y="244" type="line"/>
		</contour>
		<contour>
			<point x="168" y="416" type="line"/>
			<point x="572" y="416" type="line"/>
			<point x="572" y="444" type="line"/>
			<point x="168" y="444" type="line"/>
		</contour>
	</outline>
</glyph>
<glyph name="equalcolon" format="1">
	<unicode hex="2255"/>
	<advance width="600"/>
	<outline>
		<contour>
			<point x="520" y="172" type="curve" smooth="yes"/>
			<point x="546" y="172"/>
			<point x="572" y="192"/>
			<point x="572" y="230" type="curve" smooth="yes"/>
			<point x="572" y="268"/>
			<point x="546" y="288"/>
			<point x="520" y="288" type="curve" smooth="yes"/>
			<point x="494" y="288"/>
			<point x="468" y="268"/>
			<point x="468" y="230" type="curve" smooth="yes"/>
			<point x="468" y="192"/>
			<point x="494" y="172"/>
		</contour>
		<contour>
			<point x="520" y="372" type="curve" smooth="yes"/>
			<point x="546" y="372"/>
			<point x="572" y="392"/>
			<point x="572" y="430" type="curve" smooth="yes"/>
			<point x="572" y="468"/>
			<point x="546" y="488"/>
			<point x="520" y="488" type="curve" smooth="yes"/>
			<point x="494" y="488"/>
			<point x="468" y="468"/>
			<point x="468" y="430" type="curve" smooth="yes"/>
			<point x="468" y="392"/>
			<point x="494" y="372"/>
		</contour>
		<contour>
			<point x="28" y="216" type="line"/>
			<point x="432" y="216" type="line"/>
			<point x="432" y="244" type="line"/>
			<point x="28" y="244" type="line"/>
		</contour>
		<contour>
			<point x="28" y="416" type="line"/>
			<point x="432" y="416" type="line"/>
			<point x="432" y="444" type="line"/>
			<point x="28" y="444" type="line"/>
		</contour>
	</outline>
</glyph>
<glyph name="notidentical" format="1">
	<unicode hex="2262"/>
	<advance width="600"/>
	<outline>
		<component base="equivalence"/>
		<contour>
			<point x="132" y="-14" type="line"/>
			<point x="166" y="-14" type="line"/>
			<point x="468" y="674" type="line"/>
			<point x="434" y="674" type="line"/>
		</contour>
	</outline>
</glyph>
<glyph name="muchless" format="1">
	<unicode hex="226A"/>
	<advance width="600"/>
	<outline>
		<contour>
			<point x="346" y="62" type="line"/>
			<point x="346" y="98" type="line"/>
			<point x="76" y="330" type="line"/>
			<point x="76" y="334" type="line"/>
			<point x="346" y="566" type="line"/>
			<point x="346" y="602" type="line"/>
			<point x="44" y="348" type="line"/>
			<point x="44" y="316" type="line"/>
		</contour>
		<contour>
			<point x="566" y="62" type="line"/>
			<point x="566" y="98" type="line"/>
			<point x="296" y="330" type="line"/>
			<point x="296" y="334" type="line"/>
			<point x="566" y="566" type="line"/>
			<point x="566" y="602" type="line"/>
			<point x="264" y="348" type="line"/>
			<point x="264" y="316" type="line"/>
		</contour>
	</outline>
</glyph>
<glyph name="muchgreater" format="1">
	<unicode hex="226B"/>
	<advance width="600"/>
	<outline>
		<contour>
			<point x="34" y="62" type="line"/>
			<point x="336" y="316" type="line"/>
			<point x="336" y="348" type="line"/>
			<point x="34" y="602" type="line"/>
			<point x="34" y="566" type="line"/>
			<point x="304" y="334" type="line"/>
			<point x="304" y="330" type="line"/>
			<point x="34" y="98" type="line"/>
		</contour>
		<contour>
			<point x="254" y="62" type="line"/>
			<point x="556" y="316" type="line"/>
			<point x="556" y="348" type="line"/>
			<point x="254" y="602" type="line"/>
			<point x="254" y="566" type="line"/>
			<point x="524" y="334" type="line"/>
			<point x="524" y="330" type="line"/>
			<point x="254" y="98" type="line"/>
		</contour>
	</outline>
</glyph>
<glyph name="notgreater" format="1">
	<unicode hex="226F"/>
	<advance width="600"/>
	<outline>
		<component base="greater"/>
		<contour>
			<point x="192" y="-68" type="line"/>
			<point x="226" y="-68" type="line"/>
			<point x="408" y="732" type="line"/>
			<point x="374" y="732" type="line"/>
		</contour>
	</outline>
</glyph>
<glyph name="notgreaterequal" format="1">
	<unicode hex="2271"/>
	<advance width="600"/>
	<outline>
		<component base="greaterequal"/>
		<contour>
			<point x="192" y="-130" type="line"/>
			<point x="226" y="-130" type="line"/>
			<point x="408" y="642" type="line"/>
			<point x="374" y="642" type="line"/>
		</contour>
	</outline>
</glyph>
<glyph name="greaterequivlnt" format="1">
	<unicode hex="2273"/>
	<advance width="600"/>
	<outline>
		<component base="asciitilde" yOffset="-316"/>
		<contour>
			<point x="98" y="152" type="line"/>
			<point x="502" y="314" type="line"/>
			<point x="502" y="350" type="line"/>
			<point x="98" y="512" type="line"/>
			<point x="98" y="480" type="line"/>
			<point x="338" y="386" type="line"/>
			<point x="470" y="334" type="line"/>
			<point x="470" y="330" type="line"/>
			<point x="338" y="278" type="line"/>
			<point x="98" y="184" type="line"/>
		</contour>
	</outline>
</glyph>
<glyph name="notlessequivlnt" format="1">
	<unicode hex="2274"/>
	<advance width="600"/>
	<outline>
		<component base="lessequivlnt"/>
		<contour>
			<point x="192" y="-176" type="line"/>
			<point x="226" y="-176" type="line"/>
			<point x="408" y="642" type="line"/>
			<point x="374" y="642" type="line"/>
		</contour>
	</outline>
</glyph>
<glyph name="propersubset" format="1">
	<unicode hex="2282"/>
	<advance width="600"/>
	<outline>
		<contour>
			<point x="518" y="144" type="line"/>
			<point x="518" y="176" type="line"/>
			<point x="280" y="176" type="line" smooth="yes"/>
			<point x="166" y="176"/>
			<point x="102" y="236"/>
			<point x="102" y="330" type="curve" smooth="yes"/>
			<point x="102" y="424"/>
			<point x="166" y="484"/>
			<point x="280" y="484" type="curve" smooth="yes"/>
			<point x="518" y="484" type="line"/>
			<point x="518" y="516" type="line"/>
			<point x="268" y="516" type="line" smooth="yes"/>
			<point x="148" y="516"/>
			<point x="68" y="438"/>
			<point x="68" y="330" type="curve" smooth="yes"/>
			<point x="68" y="222"/>
			<point x="148" y="144"/>
			<point x="268" y="144" type="curve" smooth="yes"/>
		</contour>
	</outline>
</glyph>
<glyph name="propersuperset" format="1">
	<unicode hex="2283"/>
	<advance width="600"/>
	<outline>
		<contour>
			<point x="82" y="516" type="line"/>
			<point x="82" y="484" type="line"/>
			<point x="320" y="484" type="line" smooth="yes"/>
			<point x="434" y="484"/>
			<point x="498" y="424"/>
			<point x="498" y="330" type="curve" smooth="yes"/>
			<point x="498" y="236"/>
			<point x="434" y="176"/>
			<point x="320" y="176" type="curve" smooth="yes"/>
			<point x="82" y="176" type="line"/>
			<point x="82" y="144" type="line"/>
			<point x="332" y="144" type="line" smooth="yes"/>
			<point x="452" y="144"/>
			<point x="532" y="222"/>
			<point x="532" y="330" type="curve" smooth="yes"/>
			<point x="532" y="438"/>
			<point x="452" y="516"/>
			<point x="332" y="516" type="curve" smooth="yes"/>
		</contour>
	</outline>
</glyph>
<glyph name="notsubset" format="1">
	<unicode hex="2284"/>
	<advance width="600"/>
	<outline>
		<component base="propersubset"/>
		<contour>
			<point x="132" y="14" type="line"/>
			<point x="166" y="14" type="line"/>
			<point x="468" y="646" type="line"/>
			<point x="434" y="646" type="line"/>
		</contour>
	</outline>
</glyph>
<glyph name="notsuperset" format="1">
	<unicode hex="2285"/>
	<advance width="600"/>
	<outline>
		<component base="propersuperset"/>
		<contour>
			<point x="132" y="14" type="line"/>
			<point x="166" y="14" type="line"/>
			<point x="468" y="646" type="line"/>
			<point x="434" y="646" type="line"/>
		</contour>
	</outline>
</glyph>
<glyph name="reflexsubset" format="1">
	<unicode hex="2286"/>
	<advance width="600"/>
	<outline>
		<contour>
			<point x="518" y="144" type="line"/>
			<point x="518" y="176" type="line"/>
			<point x="280" y="176" type="line" smooth="yes"/>
			<point x="166" y="176"/>
			<point x="102" y="236"/>
			<point x="102" y="330" type="curve" smooth="yes"/>
			<point x="102" y="424"/>
			<point x="166" y="484"/>
			<point x="280" y="484" type="curve" smooth="yes"/>
			<point x="518" y="484" type="line"/>
			<point x="518" y="516" type="line"/>
			<point x="268" y="516" type="line" smooth="yes"/>
			<point x="148" y="516"/>
			<point x="68" y="438"/>
			<point x="68" y="330" type="curve" smooth="yes"/>
			<point x="68" y="222"/>
			<point x="148" y="144"/>
			<point x="268" y="144" type="curve" smooth="yes"/>
		</contour>
		<contour>
			<point x="82" y="0" type="line"/>
			<point x="518" y="0" type="line"/>
			<point x="518" y="28" type="line"/>
			<point x="82" y="28" type="line"/>
		</contour>
	</outline>
</glyph>
<glyph name="notreflexsubset" format="1">
	<unicode hex="2288"/>
	<advance width="600"/>
	<outline>
		<component base="reflexsubset"/>
		<contour>
			<point x="132" y="-130" type="line"/>
			<point x="166" y="-130" type="line"/>
			<point x="468" y="646" type="line"/>
			<point x="434" y="646" type="line"/>
		</contour>
	</outline>
</glyph>
<glyph name="subsetnotequal" format="1">
	<unicode hex="228A"/>
	<advance width="600"/>
	<outline>
		<component base="reflexsubset"/>
		<contour>
			<point x="232" y="-130" type="line"/>
			<point x="266" y="-130" type="line"/>
			<point x="368" y="90" type="line"/>
			<point x="334" y="90" type="line"/>
		</contour>
	</outline>
</glyph>
<glyph name="ellipsisvertical" format="1">
	<unicode hex="22EE"/>
	<advance width="600"/>
	<outline>
		<contour>
			<point x="300" y="-12" type="curve" smooth="yes"/>
			<point x="325" y="-12"/>
			<point x="352" y="10"/>
			<point x="352" y="46" type="curve" smooth="yes"/>
			<point x="352" y="84"/>
			<point x="325" y="105"/>
			<point x="300" y="105" type="curve" smooth="yes"/>
			<point x="275" y="105"/>
			<point x="248" y="84"/>
			<point x="248" y="46" type="curve" smooth="yes"/>
			<point x="248" y="10"/>
			<point x="275" y="-12"/>
		</contour>
		<contour>
			<point x="300" y="272" type="curve" smooth="yes"/>
			<point x="325" y="272"/>
			<point x="352" y="294"/>
			<point x="352" y="330" type="curve" smooth="yes"/>
			<point x="352" y="368"/>
			<point x="325" y="389"/>
			<point x="300" y="389" type="curve" smooth="yes"/>
			<point x="275" y="389"/>
			<point x="248" y="368"/>
			<point x="248" y="330" type="curve" smooth="yes"/>
			<point x="248" y="294"/>
			<point x="275" y="272"/>
		</contour>
		<contour>
			<point x="300" y="556" type="curve" smooth="yes"/>
			<point x="325" y="556"/>
			<point x="352" y="578"/>
			<point x="352" y="614" type="curve" smooth="yes"/>
			<point x="352" y="652"/>
			<point x="325" y="673"/>
			<point x="300" y="673" type="curve" smooth="yes"/>
			<point x="275" y="673"/>
			<point x="248" y="652"/>
			<point x="248" y="614" type="curve" smooth="yes"/>
			<point x="248" y="578"/>
			<point x="275" y="556"/>
		</contour>
	</outline>
</glyph>
<glyph name="upslopeellipsis" format="1">
	<unicode hex="22F0"/>
	<advance width="600"/>
	<outline>
		<contour>
			<point x="110" y="-12" type="curve" smooth="yes"/>
			<point x="135" y="-12"/>
			<point x="162" y="10"/>
			<point x="162" y="46" type="curve" smooth="yes"/>
			<point x="162" y="84"/>
			<point x="135" y="105"/>
			<point x="110" y="105" type="curve" smooth="yes"/>
			<point x="85" y="105"/>
			<point x="58" y="84"/>
			<point x="58" y="46" type="curve" smooth="yes"/>
			<point x="58" y="10"/>
			<point x="85" y="-12"/>
		</contour>
		<contour>
			<point x="300" y="272" type="curve" smooth="yes"/>
			<point x="325" y="272"/>
			<point x="352" y="294"/>
			<point x="352" y="330" type="curve" smooth="yes"/>
			<point x="352" y="368"/>
			<point x="325" y="389"/>
			<point x="300" y="389" type="curve" smooth="yes"/>
			<point x="275" y="389"/>
			<point x="248" y="368"/>
			<point x="248" y="330" type="curve" smooth="yes"/>
			<point x="248" y="294"/>
			<point x="275" y="272"/>
		</contour>
		<contour>
			<point x="490" y="556" type="curve" smooth="yes"/>
			<point x="515" y="556"/>
			<point x="542" y="578"/>
			<point x="542" y="614" type="curve" smooth="yes"/>
			<point x="542" y="652"/>
			<point x="515" y="673"/>
			<point x="490" y="673" type="curve" smooth="yes"/>
			<point x="465" y="673"/>
			<point x="438" y="652"/>
			<point x="438" y="614" type="curve" smooth="yes"/>
			<point x="438" y="578"/>
			<point x="465" y="556"/>
		</contour>
	</outline>
</glyph>
<glyph name="heavyvertbxd" format="2">
	<unicode hex="2503"/>
	<advance width="600"/>
	<outline>
		<contour>
			<point x="270" y="-400" type="line"/>
			<point x="330" y="-400" type="line"/>
			<point x="330" y="1000" type="line"/>
			<point x="270" y="1000" type="line"/>
		</contour>
	</outline>
</glyph>
<glyph name="lighttrpldashvertbxd" format="1">
	<unicode hex="2506"/>
	<advance width="600"/>
	<outline>
		<contour>
			<point x="285" y="567" type="line"/>
			<point x="315" y="567" type="line"/>
			<point x="315" y="833" type="line"/>
			<point x="285" y="833" type="line"/>
		</contour>
		<contour>
			<point x="285" y="167" type="line"/>
			<point x="315" y="167" type="line"/>
			<point x="315" y="433" type="line"/>
			<point x="285" y="433" type="line"/>
		</contour>
		<contour>
			<point x="285" y="-233" type="line"/>
			<point x="315" y="-233" type="line"/>
			<point x="315" y="33" type="line"/>
			<point x="285" y="33" type="line"/>
		</contour>
	</outline>
</glyph>
<glyph name="upheavyrightdnlightbxd" format="1">
	<unicode hex="251E"/>
	<advance width="600"/>
	<outline>
		<contour>
			<point x="615" y="285" type="line"/>
			<point x="615" y="315" type="line"/>
			<point x="330" y="315" type="line"/>
			<point x="330" y="1000" type="line"/>
			<point x="270" y="1000" type="line"/>
			<point x="270" y="285" type="line"/>
			<point x="285" y="285" type="line"/>
			<point x="285" y="-400" type="line"/>
			<point x="315" y="-400" type="line"/>
			<point x="315" y="285" type="line"/>
		</contour>
	</outline>
</glyph>
<glyph name="dnlightleftupheavybxd" format="1">
	<unicode hex="2529"/>
	<advance width="600"/>
	<outline>
		<contour>
			<point x="315" y="-400" type="line"/>
			<point x="315" y="270" type="line"/>
			<point x="330" y="270" type="line"/>
			<point x="330" y="1000" type="line"/>
			<point x="270" y="1000" type="line"/>
			<point x="270" y="330" type="line"/>
			<point x="-15" y="330" type="line"/>
			<point x="-15" y="270" type="line"/>
			<point x="285" y="270" type="line"/>
			<point x="285" y="-400" type="line"/>
		</contour>
	</outline>
</glyph>
<glyph name="rightlightleftdnheavybxd" format="2">
	<unicode hex="2531"/>
	<advance width="600"/>
	<outline>
		<contour>
			<point x="615" y="285" type="line"/>
			<point x="615" y="315" type="line"/>
			<point x="330" y="315" type="line"/>
			<point x="330" y="330" type="line"/>
			<point x="-15" y="330" type="line"/>
			<point x="-15" y="270" type="line"/>
			<point x="270" y="270" type="line"/>
			<point x="270" y="-400" type="line"/>
			<point x="330" y="-400" type="line"/>
			<point x="330" y="285" type="line"/>
		</contour>
	</outline>
</glyph>
<glyph name="dnheavyuphorzlightbxd" format="1">
	<unicode hex="2541"/>
	<advance width="600"/>
	<outline>
		<contour>
			<point x="615" y="285" type="line"/>
			<point x="615" y="315" type="line"/>
			<point x="315" y="315" type="line"/>
			<point x="315" y="1000" type="line"/>
			<point x="285" y="1000" type="line"/>
			<point x="285" y="315" type="line"/>
			<point x="-15" y="315" type="line"/>
			<point x="-15" y="285" type="line"/>
			<point x="270" y="285" type="line"/>
			<point x="270" y="-400" type="line"/>
			<point x="330" y="-400" type="line"/>
			<point x="330" y="285" type="line"/>
		</contour>
	</outline>
</glyph>
<glyph name="bulletsquare" format="1">
	<unicode hex="25AA"/>
	<advance width="600"/>
	<outline>
		<contour>
			<point x="180" y="142" type="line"/>
			<point x="420" y="142" type="line"/>
			<point x="420" y="382" type="line"/>
			<point x="180" y="382" type="line"/>
		</contour>
	</outline>
</glyph>
<glyph name="trianglesmallrightblack" format="1">
	<unicode hex="25B8"/>
	<advance width="600"/>
	<outline>
		<contour>
			<point x="180" y="114" type="line"/>
			<point x="182" y="114" type="line"/>
			<point x="450" y="262" type="line"/>
			<point x="450" y="264" type="line"/>
			<point x="182" y="412" type="line"/>
			<point x="180" y="412" type="line"/>
		</contour>
	</outline>
</glyph>
<glyph name="triangledownblack" format="2">
	<unicode hex="25BC"/>
	<advance width="600"/>
	<outline>
		<contour>
			<point x="299" y="88" type="line"/>
			<point x="301" y="88" type="line"/>
			<point x="540" y="590" type="line"/>
			<point x="540" y="592" type="line"/>
			<point x="60" y="592" type="line"/>
			<point x="60" y="590" type="line"/>
		</contour>
	</outline>
</glyph>
<glyph name="triangledownwhite" format="2">
	<unicode hex="25BD"/>
	<advance width="600"/>
	<outline>
		<contour>
			<point x="299" y="88" type="line"/>
			<point x="301" y="88" type="line"/>
			<point x="540" y="590" type="line"/>
			<point x="540" y="592" type="line"/>
			<point x="60" y="592" type="line"/>
			<point x="60" y="590" type="line"/>
		</contour>
		<contour>
			<point x="300" y="138" type="line"/>
			<point x="96" y="570" type="line"/>
			<point x="504" y="570" type="line"/>
		</contour>
	</outline>
</glyph>
<glyph name="trianglesmalldownwhite" format="1">
	<unicode hex="25BF"/>
	<advance width="600"/>
	<outline>
		<contour>
			<point x="299" y="102" type="line"/>
			<point x="301" y="102" type="line"/>
			<point x="462" y="388" type="line"/>
			<point x="462" y="390" type="line"/>
			<point x="138" y="390" type="line"/>
			<point x="138" y="388" type="line"/>
		</contour>
		<contour>
			<point x="300" y="146" type="line"/>
			<point x="176" y="368" type="line"/>
			<point x="424" y="368" type="line"/>
		</contour>
	</outline>
</glyph>
<glyph name="triangleleftblack" format="2">
	<unicode hex="25C0"/>
	<advance width="600"/>
	<outline>
		<contour>
			<point x="540" y="110" type="line"/>
			<point x="542" y="110" type="line"/>
			<point x="542" y="590" type="line"/>
			<point x="540" y="590" type="line"/>
			<point x="38" y="351" type="line"/>
			<point x="38" y="349" type="line"/>
		</contour>
	</outline>
</glyph>
<glyph name="circleblack" format="2">
	<unicode hex="25CF"/>
	<advance width="600"/>
	<outline>
		<contour>
			<point x="300" y="118" type="curve" smooth="yes"/>
			<point x="422" y="118"/>
			<point x="512" y="208"/>
			<point x="512" y="330" type="curve" smooth="yes"/>
			<point x="512" y="452"/>
			<point x="422" y="542"/>
			<point x="300" y="542" type="curve" smooth="yes"/>
			<point x="178" y="542"/>
			<point x="88" y="452"/>
			<point x="88" y="330" type="curve" smooth="yes"/>
			<point x="88" y="208"/>
			<point x="178" y="118"/>
		</contour>
	</outline>
</glyph>
<glyph name="invbullet" format="1">
	<unicode hex="25D8"/>
	<advance width="600"/>
	<outline>
		<contour>
			<point x="160" y="122" type="line"/>
			<point x="440" y="122" type="line"/>
			<point x="440" y="402" type="line"/>
			<point x="160" y="402" type="line"/>
		</contour>
		<contour>
			<point x="300" y="134" type="curve" smooth="yes"/>
			<point x="226" y="134"/>
			<point x="172" y="188"/>
			<point x="172" y="262" type="curve" smooth="yes"/>
			<point x="172" y="336"/>
			<point x="226" y="390"/>
			<point x="300" y="390" type="curve" smooth="yes"/>
			<point x="374" y="390"/>
			<point x="428" y="336"/>
			<point x="428" y="262" type="curve" smooth="yes"/>
			<point x="428" y="188"/>
			<point x="374" y="134"/>
		</contour>
	</outline>
</glyph>
<glyph name="invcircle" format="2">
	<unicode hex="25D9"/>
	<advance width="600"/>
	<outline>
		<contour>
			<point x="88" y="118" type="line"/>
			<point x="512" y="118" type="line"/>
			<point x="512" y="542" type="line"/>
			<point x="88" y="542" type="line"/>
		</contour>
		<contour>
			<point x="300" y="122" type="curve" smooth="yes"/>
			<point x="178" y="122"/>
			<point x="92" y="212"/>
			<point x="92" y="330" type="curve" smooth="yes"/>
			<point x="92" y="448"/>
			<point x="178" y="538"/>
			<point x="300" y="538" type="curve" smooth="yes"/>
			<point x="422" y="538"/>
			<point x="508" y="448"/>
			<point x="508" y="330" type="curve" smooth="yes"/>
			<point x="508" y="212"/>
			<point x="422" y="122"/>
		</contour>
		<contour>
			<point x="300" y="150" type="curve" smooth="yes"/>
			<point x="402" y="150"/>
			<point x="476" y="226"/>
			<point x="476" y="330" type="curve" smooth="yes"/>
			<point x="476" y="434"/>
			<point x="402" y="510"/>
			<point x="300" y="510" type="curve" smooth="yes"/>
			<point x="198" y="510"/>
			<point x="124" y="434"/>
			<point x="124" y="330" type="curve" smooth="yes"/>
			<point x="124" y="226"/>
			<point x="198" y="150"/>
		</contour>
	</outline>
</glyph>
<glyph name="coffee" format="2">
	<unicode hex="2615"/>
	<advance width="600"/>
	<outline>
		<contour>
			<point x="252" y="48" type="curve" smooth="yes"/>
			<point x="342" y="48"/>
			<point x="425" y="85"/>
			<point x="470" y="164" type="curve"/>
			<point x="572" y="164"/>
			<point x="652" y="226"/>
			<point x="652" y="320" type="curve" smooth="yes"/>
			<point x="652" y="404"/>
			<point x="602" y="442"/>
			<point x="528" y="454" type="curve"/>
			<point x="513" y="556"/>
			<point x="422" y="612"/>
			<point x="252" y="612" type="curve" smooth="yes"/>
			<point x="77" y="612"/>
			<point x="-28" y="547"/>
			<point x="-28" y="428" type="curve" smooth="yes"/>
			<point x="-28" y="167"/>
			<point x="82" y="48"/>
		</contour>
		<contour>
			<point x="252" y="74" type="curve" smooth="yes"/>
			<point x="103" y="74"/>
			<point x="2" y="177"/>
			<point x="2" y="420" type="curve" smooth="yes"/>
			<point x="2" y="523"/>
			<point x="92" y="586"/>
			<point x="252" y="586" type="curve" smooth="yes"/>
			<point x="413" y="586"/>
			<point x="502" y="528"/>
			<point x="502" y="430" type="curve"/>
			<point x="583" y="430"/>
			<point x="624" y="380"/>
			<point x="624" y="320" type="curve" smooth="yes"/>
			<point x="624" y="248"/>
			<point x="569" y="186"/>
			<point x="454" y="186" type="curve"/>
			<point x="416" y="106"/>
			<point x="339" y="74"/>
		</contour>
		<contour>
			<point x="252" y="322" type="curve" smooth="yes"/>
			<point x="385" y="322"/>
			<point x="451" y="354"/>
			<point x="484" y="410" type="curve"/>
			<point x="464" y="471"/>
			<point x="377" y="516"/>
			<point x="252" y="516" type="curve" smooth="yes"/>
			<point x="127" y="516"/>
			<point x="40" y="472"/>
			<point x="20" y="410" type="curve"/>
			<point x="53" y="354"/>
			<point x="119" y="322"/>
		</contour>
		<contour>
			<point x="478" y="246" type="curve"/>
			<point x="524" y="246"/>
			<point x="562" y="270"/>
			<point x="562" y="314" type="curve" smooth="yes"/>
			<point x="562" y="354"/>
			<point x="543" y="366"/>
			<point x="500" y="366" type="curve"/>
			<point x="498" y="326"/>
			<point x="492" y="286"/>
		</contour>
		<contour>
			<point x="321" y="418" type="curve"/>
			<point x="321" y="418" type="line"/>
			<point x="260" y="374"/>
			<point x="215" y="360"/>
			<point x="173" y="360" type="curve" smooth="yes"/>
			<point x="136" y="360"/>
			<point x="116" y="376"/>
			<point x="116" y="392" type="curve" smooth="yes"/>
			<point x="116" y="404"/>
			<point x="124" y="412"/>
			<point x="151" y="418" type="curve"/>
			<point x="151" y="418" type="line"/>
			<point x="124" y="424"/>
			<point x="116" y="432"/>
			<point x="116" y="444" type="curve" smooth="yes"/>
			<point x="116" y="460"/>
			<point x="136" y="476"/>
			<point x="173" y="476" type="curve" smooth="yes"/>
			<point x="215" y="476"/>
			<point x="260" y="462"/>
		</contour>
		<contour>
			<point x="326" y="418" type="curve"/>
			<point x="326" y="418" type="line"/>
			<point x="360" y="438"/>
			<point x="386" y="444"/>
			<point x="400" y="444" type="curve" smooth="yes"/>
			<point x="416" y="444"/>
			<point x="430" y="434"/>
			<point x="430" y="418" type="curve" smooth="yes"/>
			<point x="430" y="402"/>
			<point x="416" y="392"/>
			<point x="400" y="392" type="curve" smooth="yes"/>
			<point x="386" y="392"/>
			<point x="360" y="398"/>
		</contour>
	</outline>
</glyph>
<glyph name="female" format="2">
	<unicode hex="2640"/>
	<advance width="600"/>
	<outline>
		<contour>
			<point x="300" y="258" type="curve" smooth="yes"/>
			<point x="428" y="258"/>
			<point x="528" y="354"/>
			<point x="528" y="482" type="curve" smooth="yes"/>
			<point x="528" y="610"/>
			<point x="428" y="706"/>
			<point x="300" y="706" type="curve" smooth="yes"/>
			<point x="172" y="706"/>
			<point x="72" y="610"/>
			<point x="72" y="482" type="curve" smooth="yes"/>
			<point x="72" y="354"/>
			<point x="172" y="258"/>
		</contour>
		<contour>
			<point x="300" y="286" type="curve" smooth="yes"/>
			<point x="190" y="286"/>
			<point x="104" y="366"/>
			<point x="104" y="482" type="curve" smooth="yes"/>
			<point x="104" y="598"/>
			<point x="190" y="678"/>
			<point x="300" y="678" type="curve" smooth="yes"/>
			<point x="410" y="678"/>
			<point x="496" y="598"/>
			<point x="496" y="482" type="curve" smooth="yes"/>
			<point x="496" y="366"/>
			<point x="410" y="286"/>
		</contour>
		<contour>
			<point x="284" y="-38" type="line"/>
			<point x="316" y="-38" type="line"/>
			<point x="316" y="106" type="line"/>
			<point x="462" y="106" type="line"/>
			<point x="462" y="134" type="line"/>
			<point x="316" y="134" type="line"/>
			<point x="316" y="278" type="line"/>
			<point x="284" y="278" type="line"/>
			<point x="284" y="134" type="line"/>
			<point x="138" y="134" type="line"/>
			<point x="138" y="106" type="line"/>
			<point x="284" y="106" type="line"/>
		</contour>
	</outline>
</glyph>
<glyph name="diamond" format="2">
	<unicode hex="2666"/>
	<advance width="600"/>
	<outline>
		<contour>
			<point x="302" y="-12" type="line"/>
			<point x="588" y="360" type="line"/>
			<point x="588" y="364" type="line"/>
			<point x="302" y="734" type="line"/>
			<point x="298" y="734" type="line"/>
			<point x="12" y="364" type="line"/>
			<point x="12" y="360" type="line"/>
			<point x="298" y="-12" type="line"/>
		</contour>
	</outline>
</glyph>
<glyph name="musicalnotedbl" format="2">
	<unicode hex="266B"/>
	<advance width="600"/>
	<outline>
		<contour>
			<point x="108" y="-20" type="curve" smooth="yes"/>
			<point x="178" y="-20"/>
			<point x="260" y="26"/>
			<point x="260" y="120" type="curve"/>
			<point x="260" y="546" type="line"/>
			<point x="252" y="674" type="line"/>
			<point x="226" y="674" type="line"/>
			<point x="226" y="140" type="line"/>
			<point x="216" y="146"/>
			<point x="190" y="152"/>
			<point x="164" y="152" type="curve" smooth="yes"/>
			<point x="72" y="152"/>
			<point x="16" y="100"/>
			<point x="16" y="48" type="curve" smooth="yes"/>
			<point x="16" y="6"/>
			<point x="56" y="-20"/>
		</contour>
		<contour>
			<point x="420" y="40" type="curve" smooth="yes"/>
			<point x="490" y="40"/>
			<point x="572" y="86"/>
			<point x="572" y="180" type="curve"/>
			<point x="572" y="734" type="line"/>
			<point x="538" y="724" type="line"/>
			<point x="538" y="200" type="line"/>
			<point x="528" y="206"/>
			<point x="502" y="212"/>
			<point x="476" y="212" type="curve" smooth="yes"/>
			<point x="384" y="212"/>
			<point x="328" y="160"/>
			<point x="328" y="108" type="curve" smooth="yes"/>
			<point x="328" y="66"/>
			<point x="368" y="40"/>
		</contour>
		<contour>
			<point x="226" y="540" type="line"/>
			<point x="572" y="600" type="line"/>
			<point x="572" y="734" type="line"/>
			<point x="226" y="674" type="line"/>
		</contour>
	</outline>
</glyph>
<glyph name="squareshadow" format="2">
	<unicode hex="2752"/>
	<advance width="600"/>
	<outline>
		<contour>
			<point x="88" y="118" type="line"/>
			<point x="472" y="118" type="line"/>
			<point x="512" y="162" type="line"/>
			<point x="512" y="542" type="line"/>
			<point x="136" y="542" type="line"/>
			<point x="88" y="504" type="line"/>
		</contour>
		<contour>
			<point x="116" y="144" type="line"/>
			<point x="116" y="486" type="line"/>
			<point x="454" y="486" type="line"/>
			<point x="454" y="144" type="line"/>
		</contour>
	</outline>
</glyph>
<glyph name="uni27E8" format="1">
	<unicode hex="27E8"/>
	<advance width="600"/>
	<outline>
		<contour>
			<point x="246" y="276" type="line"/>
			<point x="474" y="-152" type="line"/>
			<point x="506" y="-152" type="line"/>
			<point x="278" y="276" type="line"/>
			<point x="278" y="280" type="line"/>
			<point x="506" y="708" type="line"/>
			<point x="474" y="708" type="line"/>
			<point x="246" y="280" type="line"/>
		</contour>
	</outline>
</glyph>
<glyph name="uni27E9" format="1">
	<unicode hex="27E9"/>
	<advance width="600"/>
	<outline>
		<contour>
			<point x="126" y="-152" type="line"/>
			<point x="354" y="276" type="line"/>
			<point x="354" y="280" type="line"/>
			<point x="126" y="708" type="line"/>
			<point x="94" y="708" type="line"/>
			<point x="322" y="280" type="line"/>
			<point x="322" y="276" type="line"/>
			<point x="94" y="-152" type="line"/>
		</contour>
	</outline>
</glyph>
<glyph name="uni27F5" format="1">
	<unicode hex="27F5"/>
	<advance width="600"/>
	<outline>
		<contour>
			<point x="226" y="-14" type="line"/>
			<point x="246" y="6" type="line"/>
			<point x="4" y="238" type="line"/>
			<point x="632" y="238" type="line"/>
			<point x="632" y="266" type="line"/>
			<point x="4" y="266" type="line"/>
			<point x="246" y="498" type="line"/>
			<point x="226" y="518" type="line"/>
			<point x="-42" y="254" type="line"/>
			<point x="-42" y="250" type="line"/>
		</contour>
	</outline>
</glyph>
<glyph name="uni27F6" format="1">
	<unicode hex="27F6"/>
	<advance width="600"/>
	<outline>
		<contour>
			<point x="374" y="-14" type="line"/>
			<point x="642" y="250" type="line"/>
			<point x="642" y="254" type="line"/>
			<point x="374" y="518" type="line"/>
			<point x="354" y="498" type="line"/>
			<point x="596" y="266" type="line"/>
			<point x="-32" y="266" type="line"/>
			<point x="-32" y="238" type="line"/>
			<point x="596" y="238" type="line"/>
			<point x="354" y="6" type="line"/>
		</contour>
	</outline>
</glyph>
<glyph name="uni27F7" format="1">
	<unicode hex="27F7"/>
	<advance width="600"/>
	<outline>
		<contour>
			<point x="644" y="254" type="line"/>
			<point x="466" y="458" type="line"/>
			<point x="446" y="438" type="line"/>
			<point x="600" y="266" type="line"/>
			<point x="0" y="266" type="line"/>
			<point x="154" y="438" type="line"/>
			<point x="134" y="458" type="line"/>
			<point x="-44" y="254" type="line"/>
			<point x="-44" y="250" type="line"/>
			<point x="134" y="46" type="line"/>
			<point x="154" y="66" type="line"/>
			<point x="0" y="238" type="line"/>
			<point x="600" y="238" type="line"/>
			<point x="446" y="66" type="line"/>
			<point x="466" y="46" type="line"/>
			<point x="644" y="250" type="line"/>
		</contour>
	</outline>
</glyph>
<glyph name="uni27F8" format="1">
	<unicode hex="27F8"/>
	<advance width="600"/>
	<outline>
		<contour>
			<point x="226" y="-14" type="line"/>
			<point x="246" y="6" type="line"/>
			<point x="-8" y="250" type="line"/>
			<point x="-8" y="254" type="line"/>
			<point x="246" y="498" type="line"/>
			<point x="226" y="518" type="line"/>
			<point x="-42" y="254" type="line"/>
			<point x="-42" y="250" type="line"/>
		</contour>
		<contour>
			<point x="74" y="338" type="line"/>
			<point x="632" y="338" type="line"/>
			<point x="632" y="366" type="line"/>
			<point x="74" y="366" type="line"/>
		</contour>
		<contour>
			<point x="74" y="138" type="line"/>
			<point x="632" y="138" type="line"/>
			<point x="632" y="166" type="line"/>
			<point x="74" y="166" type="line"/>
		</contour>
	</outline>
</glyph>
<glyph name="27F9" format="1">
	<unicode hex="27F9"/>
	<advance width="600"/>
	<outline>
		<contour>
			<point x="374" y="-14" type="line"/>
			<point x="642" y="250" type="line"/>
			<point x="642" y="254" type="line"/>
			<point x="374" y="518" type="line"/>
			<point x="354" y="498" type="line"/>
			<point x="608" y="254" type="line"/>
			<point x="608" y="250" type="line"/>
			<point x="354" y="6" type="line"/>
		</contour>
		<contour>
			<point x="-32" y="138" type="line"/>
			<point x="526" y="138" type="line"/>
			<point x="526" y="166" type="line"/>
			<point x="-32" y="166" type="line"/>
		</contour>
		<contour>
			<point x="-32" y="338" type="line"/>
			<point x="526" y="338" type="line"/>
			<point x="526" y="366" type="line"/>
			<point x="-32" y="366" type="line"/>
		</contour>
	</outline>
</glyph>
<glyph name="uni27FA" format="1">
	<unicode hex="27FA"/>
	<advance width="600"/>
	<outline>
		<contour>
			<point x="644" y="254" type="line"/>
			<point x="466" y="458" type="line"/>
			<point x="446" y="438" type="line"/>
			<point x="611" y="254" type="line"/>
			<point x="611" y="250" type="line"/>
			<point x="446" y="66" type="line"/>
			<point x="466" y="46" type="line"/>
			<point x="644" y="250" type="line"/>
		</contour>
		<contour>
			<point x="-44" y="250" type="line"/>
			<point x="134" y="46" type="line"/>
			<point x="154" y="66" type="line"/>
			<point x="-11" y="250" type="line"/>
			<point x="-11" y="254" type="line"/>
			<point x="154" y="438" type="line"/>
			<point x="134" y="458" type="line"/>
			<point x="-44" y="254" type="line"/>
		</contour>
		<contour>
			<point x="59" y="338" type="line"/>
			<point x="541" y="338" type="line"/>
			<point x="541" y="366" type="line"/>
			<point x="59" y="366" type="line"/>
		</contour>
		<contour>
			<point x="59" y="138" type="line"/>
			<point x="541" y="138" type="line"/>
			<point x="541" y="166" type="line"/>
			<point x="59" y="166" type="line"/>
		</contour>
	</outline>
</glyph>
<glyph name="brackhalftopright" format="2">
	<unicode hex="2E23"/>
	<advance width="600"/>
	<outline>
		<contour>
			<point x="326" y="278" type="line"/>
			<point x="354" y="278" type="line"/>
			<point x="354" y="688" type="line"/>
			<point x="94" y="688" type="line"/>
			<point x="94" y="666" type="line"/>
			<point x="326" y="666" type="line"/>
		</contour>
	</outline>
</glyph>
<glyph name="uniE0A0" format="1">
	<unicode hex="E0A0"/>
	<advance width="600"/>
	<outline>
		<contour>
			<point x="158" y="-280" type="line"/>
			<point x="158" y="-2" type="line" smooth="yes"/>
			<point x="158" y="280"/>
			<point x="474" y="176"/>
			<point x="474" y="480" type="curve" smooth="yes"/>
			<point x="474" y="725" type="line"/>
			<point x="594" y="725" type="line"/>
			<point x="460" y="900" type="line"/>
			<point x="324" y="725" type="line"/>
			<point x="444" y="725" type="line"/>
			<point x="444" y="482" type="line" smooth="yes"/>
			<point x="444" y="196"/>
			<point x="128" y="299"/>
			<point x="128" y="0" type="curve" smooth="yes"/>
			<point x="128" y="-280" type="line"/>
		</contour>
		<contour>
			<point x="158" y="364" type="line"/>
			<point x="158" y="1060" type="line"/>
			<point x="128" y="1060" type="line"/>
			<point x="128" y="340" type="line"/>
		</contour>
	</outline>
</glyph>
<glyph name="uniE0B1" format="2">
	<unicode hex="E0B1"/>
	<advance width="600"/>
	<outline>
		<contour>
			<point x="24" y="-232" type="line"/>
			<point x="600" y="380" type="line"/>
			<point x="24" y="992" type="line"/>
			<point x="0" y="970" type="line"/>
			<point x="560" y="380" type="line"/>
			<point x="0" y="-210" type="line"/>
		</contour>
	</outline>
</glyph>
<glyph name="uniE0B3" format="1">
	<unicode hex="E0B3"/>
	<advance width="600"/>
	<outline>
		<contour>
			<point x="576" y="-232" type="line"/>
			<point x="600" y="-210" type="line"/>
			<point x="40" y="380" type="line"/>
			<point x="600" y="970" type="line"/>
			<point x="576" y="992" type="line"/>
			<point x="0" y="380" type="line"/>
		</contour>
	</outline>
</glyph>
<glyph name="poop" format="2">
	<unicode hex="1F4A9"/>
	<advance width="600"/>
	<outline>
		<contour>
			<point x="300" y="14" type="curve" smooth="yes"/>
			<point x="505" y="14"/>
			<point x="594" y="41"/>
			<point x="594" y="160" type="curve" smooth="yes"/>
			<point x="594" y="224"/>
			<point x="567" y="262"/>
			<point x="506" y="278" type="curve"/>
			<point x="530" y="296"/>
			<point x="541" y="324"/>
			<point x="541" y="368" type="curve" smooth="yes"/>
			<point x="541" y="440"/>
			<point x="497" y="478"/>
			<point x="436" y="490" type="curve"/>
			<point x="449" y="504"/>
			<point x="456" y="518"/>
			<point x="456" y="544" type="curve" smooth="yes"/>
			<point x="456" y="598"/>
			<point x="410" y="636"/>
			<point x="318" y="662" type="curve"/>
			<point x="263" y="600"/>
			<point x="144" y="642"/>
			<point x="144" y="542" type="curve" smooth="yes"/>
			<point x="144" y="514"/>
			<point x="153" y="502"/>
			<point x="164" y="490" type="curve"/>
			<point x="103" y="478"/>
			<point x="59" y="440"/>
			<point x="59" y="368" type="curve" smooth="yes"/>
			<point x="59" y="324"/>
			<point x="70" y="296"/>
			<point x="94" y="278" type="curve"/>
			<point x="33" y="262"/>
			<point x="6" y="224"/>
			<point x="6" y="160" type="curve" smooth="yes"/>
			<point x="6" y="41"/>
			<point x="95" y="14"/>
		</contour>
		<contour>
			<point x="300" y="108" type="curve" smooth="yes"/>
			<point x="212" y="108"/>
			<point x="166" y="148"/>
			<point x="156" y="224" type="curve"/>
			<point x="444" y="224" type="line"/>
			<point x="434" y="148"/>
			<point x="388" y="108"/>
		</contour>
		<contour>
			<point x="150" y="312" type="line"/>
			<point x="150" y="398"/>
			<point x="172" y="432"/>
			<point x="214" y="432" type="curve" smooth="yes"/>
			<point x="256" y="432"/>
			<point x="278" y="398"/>
			<point x="278" y="312" type="curve"/>
			<point x="252" y="310" type="line"/>
			<point x="250" y="358"/>
			<point x="238" y="378"/>
			<point x="214" y="378" type="curve" smooth="yes"/>
			<point x="190" y="378"/>
			<point x="178" y="358"/>
			<point x="176" y="310" type="curve"/>
		</contour>
		<contour>
			<point x="322" y="312" type="line"/>
			<point x="322" y="398"/>
			<point x="344" y="432"/>
			<point x="386" y="432" type="curve" smooth="yes"/>
			<point x="428" y="432"/>
			<point x="450" y="398"/>
			<point x="450" y="312" type="curve"/>
			<point x="424" y="310" type="line"/>
			<point x="422" y="358"/>
			<point x="410" y="378"/>
			<point x="386" y="378" type="curve" smooth="yes"/>
			<point x="362" y="378"/>
			<point x="350" y="358"/>
			<point x="348" y="310" type="curve"/>
		</contour>
	</outline>
</glyph>
<glyph name="brevehoicmb.cap" format="2">
	<advance width="600"/>
	<outline>
		<contour>
			<point x="300" y="712" type="curve" smooth="yes"/>
			<point x="387" y="712"/>
			<point x="425" y="779"/>
			<point x="432" y="834" type="curve"/>
			<point x="406" y="838" type="line"/>
			<point x="399" y="786"/>
			<point x="367" y="738"/>
			<point x="300" y="738" type="curve" smooth="yes"/>
			<point x="233" y="738"/>
			<point x="201" y="786"/>
			<point x="194" y="838" type="curve"/>
			<point x="168" y="834" type="line"/>
			<point x="175" y="779"/>
			<point x="213" y="712"/>
		</contour>
		<contour>
			<point x="285" y="796" type="line"/>
			<point x="319" y="806"/>
			<point x="359" y="824"/>
			<point x="359" y="868" type="curve" smooth="yes"/>
			<point x="359" y="916"/>
			<point x="311" y="932"/>
			<point x="259" y="934" type="curve"/>
			<point x="255" y="908" type="line"/>
			<point x="303" y="906"/>
			<point x="329" y="896"/>
			<point x="329" y="864" type="curve" smooth="yes"/>
			<point x="329" y="840"/>
			<point x="305" y="828"/>
			<point x="275" y="820" type="curve"/>
		</contour>
	</outline>
	<anchor name="_aboveUC" x="300" y="680"/>
</glyph>
<glyph name="c.sups" format="1">
	<advance width="600"/>
	<outline>
		<contour>
			<point x="346" y="402" type="curve" smooth="yes"/>
			<point x="390" y="402"/>
			<point x="427" y="420"/>
			<point x="457" y="444" type="curve"/>
			<point x="441" y="466" type="line"/>
			<point x="417" y="446"/>
			<point x="385" y="430"/>
			<point x="347" y="430" type="curve" smooth="yes"/>
			<point x="271" y="430"/>
			<point x="221" y="486"/>
			<point x="221" y="568" type="curve" smooth="yes"/>
			<point x="221" y="650"/>
			<point x="276" y="707"/>
			<point x="348" y="707" type="curve" smooth="yes"/>
			<point x="381" y="707"/>
			<point x="408" y="692"/>
			<point x="430" y="673" type="curve"/>
			<point x="449" y="695" type="line"/>
			<point x="425" y="715"/>
			<point x="394" y="734"/>
			<point x="347" y="734" type="curve" smooth="yes"/>
			<point x="263" y="734"/>
			<point x="189" y="674"/>
			<point x="189" y="568" type="curve" smooth="yes"/>
			<point x="189" y="463"/>
			<point x="256" y="402"/>
		</contour>
	</outline>
</glyph>
<glyph name="caron.a" format="2">
	<advance width="600"/>
	<outline>
		<contour>
			<point x="272" y="548" type="line"/>
			<point x="294" y="548" type="line"/>
			<point x="300" y="744" type="line"/>
			<point x="300" y="812" type="line"/>
			<point x="270" y="812" type="line"/>
		</contour>
	</outline>
</glyph>
<glyph name="circumflexcmb.cap" format="2">
	<advance width="600"/>
	<outline>
		<contour>
			<point x="184" y="710" type="line"/>
			<point x="298" y="810" type="line"/>
			<point x="302" y="810" type="line"/>
			<point x="416" y="710" type="line"/>
			<point x="430" y="726" type="line"/>
			<point x="314" y="840" type="line"/>
			<point x="286" y="840" type="line"/>
			<point x="170" y="726" type="line"/>
		</contour>
	</outline>
	<anchor name="_aboveUC" x="300" y="680"/>
</glyph>
<glyph name="dieresismacroncmb" format="1">
	<advance width="600"/>
	<outline>
		<contour>
			<point x="214" y="602" type="curve" smooth="yes"/>
			<point x="232" y="602"/>
			<point x="246" y="616"/>
			<point x="246" y="634" type="curve" smooth="yes"/>
			<point x="246" y="652"/>
			<point x="232" y="666"/>
			<point x="214" y="666" type="curve" smooth="yes"/>
			<point x="196" y="666"/>
			<point x="182" y="652"/>
			<point x="182" y="634" type="curve" smooth="yes"/>
			<point x="182" y="616"/>
			<point x="196" y="602"/>
		</contour>
		<contour>
			<point x="386" y="602" type="curve" smooth="yes"/>
			<point x="404" y="602"/>
			<point x="418" y="616"/>
			<point x="418" y="634" type="curve" smooth="yes"/>
			<point x="418" y="652"/>
			<point x="404" y="666"/>
			<point x="386" y="666" type="curve" smooth="yes"/>
			<point x="368" y="666"/>
			<point x="354" y="652"/>
			<point x="354" y="634" type="curve" smooth="yes"/>
			<point x="354" y="616"/>
			<point x="368" y="602"/>
		</contour>
		<contour>
			<point x="178" y="746" type="line"/>
			<point x="420" y="746" type="line"/>
			<point x="420" y="774" type="line"/>
			<point x="178" y="774" type="line"/>
		</contour>
		<contour>
			<point name="_aboveLC" x="300" y="500" type="move"/>
		</contour>
	</outline>
</glyph>
<glyph name="dieresistildecmb" format="1">
	<advance width="600"/>
	<outline>
		<contour>
			<point x="214" y="602" type="curve" smooth="yes"/>
			<point x="232" y="602"/>
			<point x="246" y="616"/>
			<point x="246" y="634" type="curve" smooth="yes"/>
			<point x="246" y="652"/>
			<point x="232" y="666"/>
			<point x="214" y="666" type="curve" smooth="yes"/>
			<point x="196" y="666"/>
			<point x="182" y="652"/>
			<point x="182" y="634" type="curve" smooth="yes"/>
			<point x="182" y="616"/>
			<point x="196" y="602"/>
		</contour>
		<contour>
			<point x="386" y="602" type="curve" smooth="yes"/>
			<point x="404" y="602"/>
			<point x="418" y="616"/>
			<point x="418" y="634" type="curve" smooth="yes"/>
			<point x="418" y="652"/>
			<point x="404" y="666"/>
			<point x="386" y="666" type="curve" smooth="yes"/>
			<point x="368" y="666"/>
			<point x="354" y="652"/>
			<point x="354" y="634" type="curve" smooth="yes"/>
			<point x="354" y="616"/>
			<point x="368" y="602"/>
		</contour>
		<contour>
			<point x="374" y="700" type="curve" smooth="yes"/>
			<point x="425" y="700"/>
			<point x="446" y="742"/>
			<point x="448" y="776" type="curve"/>
			<point x="424" y="778" type="line"/>
			<point x="420" y="744"/>
			<point x="401" y="726"/>
			<point x="374" y="726" type="curve" smooth="yes"/>
			<point x="316" y="726"/>
			<point x="300" y="780"/>
			<point x="226" y="780" type="curve" smooth="yes"/>
			<point x="175" y="780"/>
			<point x="154" y="738"/>
			<point x="152" y="704" type="curve"/>
			<point x="176" y="702" type="line"/>
			<point x="180" y="736"/>
			<point x="199" y="754"/>
			<point x="226" y="754" type="curve" smooth="yes"/>
			<point x="284" y="754"/>
			<point x="300" y="700"/>
		</contour>
		<contour>
			<point name="_aboveLC" x="300" y="500" type="move"/>
		</contour>
	</outline>
</glyph>
<glyph name="eacute.sups" format="2">
	<advance width="600"/>
	<outline>
		<contour>
			<point x="288" y="782" type="line"/>
			<point x="390" y="892" type="line"/>
			<point x="366" y="912" type="line"/>
			<point x="268" y="798" type="line"/>
		</contour>
		<component base="e.sups"/>
	</outline>
</glyph>
<glyph name="four.cap" format="1">
	<advance width="600"/>
	<outline>
		<contour>
			<point x="390" y="0" type="line"/>
			<point x="420" y="0" type="line"/>
			<point x="420" y="660" type="line"/>
			<point x="405" y="660" type="line"/>
			<point x="43" y="213" type="line"/>
			<point x="43" y="196" type="line"/>
			<point x="535" y="196" type="line"/>
			<point x="535" y="225" type="line"/>
			<point x="90" y="225" type="line"/>
			<point x="328" y="522" type="line"/>
			<point x="349" y="551"/>
			<point x="372" y="578"/>
			<point x="392" y="608" type="curve"/>
			<point x="394" y="608" type="line"/>
			<point x="392" y="576"/>
			<point x="392" y="544"/>
			<point x="390" y="512" type="curve"/>
		</contour>
	</outline>
</glyph>
<glyph name="four.dnom" format="1">
	<advance width="600"/>
	<outline>
		<contour>
			<point x="344" y="0" type="line"/>
			<point x="372" y="0" type="line"/>
			<point x="372" y="212" type="line"/>
			<point x="344" y="212" type="line"/>
		</contour>
		<contour>
			<point x="180" y="84" type="line"/>
			<point x="421" y="84" type="line"/>
			<point x="421" y="108" type="line"/>
			<point x="216" y="108" type="line"/>
			<point x="330" y="298" type="line"/>
			<point x="308" y="312" type="line"/>
			<point x="180" y="99" type="line"/>
		</contour>
	</outline>
</glyph>
<glyph name="gravecmb.cap" format="1">
	<advance width="600"/>
	<outline>
		<contour>
			<point x="322" y="710" type="line"/>
			<point x="336" y="726" type="line"/>
			<point x="218" y="846" type="line"/>
			<point x="196" y="822" type="line"/>
		</contour>
		<contour>
			<point name="_aboveUC" x="300" y="680" type="move"/>
		</contour>
	</outline>
</glyph>
<glyph name="istroke.d" format="1">
	<advance width="600"/>
	<outline>
		<contour>
			<point x="148" y="238" type="line"/>
			<point x="568" y="238" type="line"/>
			<point x="568" y="266" type="line"/>
			<point x="346" y="266" type="line"/>
			<point x="148" y="262" type="line"/>
		</contour>
		<component base="dotlessi"/>
		<contour>
			<point name="aboveLC" x="350" y="500" type="move"/>
		</contour>
		<contour>
			<point name="belowLC" x="350" y="-20" type="move"/>
		</contour>
	</outline>
</glyph>
<glyph name="istroke.da" format="2">
	<advance width="600"/>
	<outline>
		<contour>
			<point x="128" y="238" type="line"/>
			<point x="548" y="238" type="line"/>
			<point x="548" y="266" type="line"/>
			<point x="326" y="266" type="line"/>
			<point x="128" y="262" type="line"/>
		</contour>
		<component base="dotlessi.a"/>
	</outline>
	<anchor name="aboveLC" x="330" y="500"/>
	<anchor name="belowLC" x="330" y="-20"/>
</glyph>
<glyph name="lenisacute.cap" format="2">
	<advance width="600"/>
	<outline>
		<contour>
			<point x="231" y="486" type="line"/>
			<point x="265" y="506"/>
			<point x="299" y="538"/>
			<point x="299" y="586" type="curve" smooth="yes"/>
			<point x="299" y="646"/>
			<point x="253" y="670"/>
			<point x="205" y="672" type="curve"/>
			<point x="203" y="646" type="line"/>
			<point x="245" y="644"/>
			<point x="269" y="624"/>
			<point x="269" y="582" type="curve" smooth="yes"/>
			<point x="269" y="552"/>
			<point x="247" y="526"/>
			<point x="219" y="508" type="curve"/>
		</contour>
		<contour>
			<point x="363" y="484" type="line"/>
			<point x="405" y="664" type="line"/>
			<point x="369" y="670" type="line"/>
			<point x="339" y="490" type="line"/>
		</contour>
	</outline>
</glyph>
<glyph name="lenisacutecmb" format="1">
	<advance width="600"/>
	<outline>
		<contour>
			<point x="202" y="578" type="line"/>
			<point x="242" y="591"/>
			<point x="280" y="612"/>
			<point x="280" y="662" type="curve" smooth="yes"/>
			<point x="280" y="712"/>
			<point x="229" y="732"/>
			<point x="176" y="734" type="curve"/>
			<point x="174" y="708" type="line"/>
			<point x="222" y="706"/>
			<point x="250" y="690"/>
			<point x="250" y="658" type="curve" smooth="yes"/>
			<point x="250" y="628"/>
			<point x="227" y="610"/>
			<point x="194" y="600" type="curve"/>
		</contour>
		<contour>
			<point x="338" y="560" type="line"/>
			<point x="402" y="744" type="line"/>
			<point x="364" y="752" type="line"/>
			<point x="314" y="566" type="line"/>
		</contour>
		<contour>
			<point name="_aboveLC" x="300" y="500" type="move"/>
		</contour>
	</outline>
</glyph>
<glyph name="lmiddletilde.a" format="1">
	<advance width="600"/>
	<outline>
		<component base="l.a"/>
		<component base="tildeoverlaycmb" xOffset="42" yOffset="160"/>
		<contour>
			<point name="aboveUC" x="340" y="740" type="move"/>
		</contour>
		<contour>
			<point name="baseLC" x="334" y="0" type="move"/>
		</contour>
		<contour>
			<point name="belowLC" x="330" y="-20" type="move"/>
		</contour>
	</outline>
</glyph>
<glyph name="nine.subs" format="1">
	<advance width="600"/>
	<outline>
		<contour>
			<point x="264" y="-182" type="curve" smooth="yes"/>
			<point x="349" y="-182"/>
			<point x="434" y="-124"/>
			<point x="434" y="42" type="curve" smooth="yes"/>
			<point x="434" y="164"/>
			<point x="372" y="232"/>
			<point x="284" y="232" type="curve" smooth="yes"/>
			<point x="208" y="232"/>
			<point x="152" y="176"/>
			<point x="152" y="104" type="curve" smooth="yes"/>
			<point x="152" y="32"/>
			<point x="197" y="-22"/>
			<point x="284" y="-22" type="curve" smooth="yes"/>
			<point x="332" y="-22"/>
			<point x="375" y="-5"/>
			<point x="410" y="30" type="curve"/>
			<point x="410" y="65" type="line"/>
			<point x="366" y="16"/>
			<point x="330" y="4"/>
			<point x="286" y="4" type="curve" smooth="yes"/>
			<point x="217" y="4"/>
			<point x="182" y="48"/>
			<point x="182" y="104" type="curve" smooth="yes"/>
			<point x="182" y="160"/>
			<point x="222" y="206"/>
			<point x="282" y="206" type="curve" smooth="yes"/>
			<point x="358" y="206"/>
			<point x="404" y="144"/>
			<point x="404" y="40" type="curve" smooth="yes"/>
			<point x="404" y="-102"/>
			<point x="331" y="-156"/>
			<point x="266" y="-156" type="curve" smooth="yes"/>
			<point x="234" y="-156"/>
			<point x="208" y="-147"/>
			<point x="188" y="-134" type="curve"/>
			<point x="174" y="-160" type="line"/>
			<point x="198" y="-175"/>
			<point x="224" y="-182"/>
		</contour>
	</outline>
</glyph>
<glyph name="one.a" format="1">
	<advance width="600"/>
	<outline>
		<contour>
			<point x="112" y="0" type="line"/>
			<point x="520" y="0" type="line"/>
			<point x="520" y="28" type="line"/>
			<point x="336" y="28" type="line"/>
			<point x="336" y="640" type="line"/>
			<point x="313" y="640" type="line"/>
			<point x="156" y="496" type="line"/>
			<point x="174" y="476" type="line"/>
			<point x="324" y="592" type="line"/>
			<point x="306" y="610" type="line"/>
			<point x="306" y="28" type="line"/>
			<point x="112" y="28" type="line"/>
		</contour>
	</outline>
</glyph>
<glyph name="one.ao" format="2">
	<advance width="600"/>
	<outline>
		<contour>
			<point x="112" y="0" type="line"/>
			<point x="520" y="0" type="line"/>
			<point x="520" y="28" type="line"/>
			<point x="336" y="28" type="line"/>
			<point x="336" y="570" type="line"/>
			<point x="313" y="570" type="line"/>
			<point x="166" y="446" type="line"/>
			<point x="184" y="426" type="line"/>
			<point x="324" y="536" type="line"/>
			<point x="306" y="540" type="line"/>
			<point x="306" y="28" type="line"/>
			<point x="112" y="28" type="line"/>
		</contour>
	</outline>
</glyph>
<glyph name="r.sups" format="1">
	<advance width="600"/>
	<outline>
		<contour>
			<point x="267" y="410" type="line"/>
			<point x="299" y="410" type="line"/>
			<point x="299" y="604" type="line"/>
			<point x="336" y="677"/>
			<point x="382" y="704"/>
			<point x="428" y="704" type="curve" smooth="yes"/>
			<point x="453" y="704"/>
			<point x="465" y="701"/>
			<point x="489" y="693" type="curve"/>
			<point x="496" y="721" type="line"/>
			<point x="476" y="731"/>
			<point x="454" y="734"/>
			<point x="432" y="734" type="curve" smooth="yes"/>
			<point x="376" y="734"/>
			<point x="329" y="699"/>
			<point x="299" y="648" type="curve"/>
			<point x="297" y="648" type="line"/>
			<point x="294" y="726" type="line"/>
			<point x="267" y="726" type="line"/>
		</contour>
	</outline>
</glyph>
<glyph name="zero.0o" format="2">
	<advance width="600"/>
	<outline>
		<contour>
			<point x="300" y="-12" type="curve" smooth="yes"/>
			<point x="438" y="-12"/>
			<point x="516" y="96"/>
			<point x="516" y="288" type="curve" smooth="yes"/>
			<point x="516" y="475"/>
			<point x="438" y="582"/>
			<point x="300" y="582" type="curve" smooth="yes"/>
			<point x="162" y="582"/>
			<point x="84" y="475"/>
			<point x="84" y="288" type="curve" smooth="yes"/>
			<point x="84" y="96"/>
			<point x="162" y="-12"/>
		</contour>
		<contour>
			<point x="300" y="16" type="curve" smooth="yes"/>
			<point x="190" y="16"/>
			<point x="116" y="109"/>
			<point x="116" y="288" type="curve" smooth="yes"/>
			<point x="116" y="460"/>
			<point x="190" y="554"/>
			<point x="300" y="554" type="curve" smooth="yes"/>
			<point x="410" y="554"/>
			<point x="484" y="460"/>
			<point x="484" y="288" type="curve" smooth="yes"/>
			<point x="484" y="109"/>
			<point x="410" y="16"/>
		</contour>
		<contour>
			<point x="430" y="68" type="line"/>
			<point x="460" y="72" type="line"/>
			<point x="172" y="502" type="line"/>
			<point x="142" y="498" type="line"/>
		</contour>
	</outline>
</glyph>
